<svg fill="none" height="88" viewBox="0 0 88 88" width="88" xmlns="http://www.w3.org/2000/svg" xmlns:xlink="http://www.w3.org/1999/xlink"><filter id="a" color-interpolation-filters="sRGB" height="88" width="88" x="0" y="0"><feFlood flood-opacity="0" result="BackgroundImageFix"/><feColorMatrix in="SourceAlpha" result="hardAlpha" type="matrix" values="0 0 0 0 0 0 0 0 0 0 0 0 0 0 0 0 0 0 127 0"/><feOffset dy="2"/><feGaussianBlur stdDeviation="2"/><feComposite in2="hardAlpha" operator="out"/><feColorMatrix type="matrix" values="0 0 0 0 0.00784314 0 0 0 0 0.278431 0 0 0 0 0.317647 0 0 0 0.15 0"/><feBlend in2="BackgroundImageFix" mode="normal" result="effect1_dropShadow_129_2111"/><feBlend in="SourceGraphic" in2="effect1_dropShadow_129_2111" mode="normal" result="shape"/></filter><g filter="url(#a)"><circle cx="44" cy="42" fill="#f7fbfe" r="40"/></g><path d="m62.8081 45.1761h-17.4477l11.6198 11.6198c.4441.4441 1.175.4802 1.6316.05 2.8456-2.6808 4.8029-6.2948 5.3772-10.3573.0985-.6956-.4787-1.3125-1.1809-1.3125zm-1.1639-4.7647c-.6059-8.7838-7.625-15.8029-16.4088-16.4087-.6706-.0464-1.2353.5191-1.2353 1.1911v16.4529h16.4536c.6721 0 1.2368-.5647 1.1905-1.2353zm-21.1735 4.7647v-17.4477c0-.7022-.6169-1.2794-1.3118-1.1809-8.7624 1.2382-15.4602 8.8934-15.1484 18.0676.3205 9.422 8.433 17.1485 17.8595 17.0301 3.7058-.0463 7.1301-1.2405 9.9455-3.2375.5809-.4118.6191-1.2669.1155-1.7706z" fill="#024751"/></svg>