<svg fill="none" height="88" viewBox="0 0 88 88" width="88" xmlns="http://www.w3.org/2000/svg" xmlns:xlink="http://www.w3.org/1999/xlink"><filter id="a" color-interpolation-filters="sRGB" height="88" width="88" x="0" y="0"><feFlood flood-opacity="0" result="BackgroundImageFix"/><feColorMatrix in="SourceAlpha" result="hardAlpha" type="matrix" values="0 0 0 0 0 0 0 0 0 0 0 0 0 0 0 0 0 0 127 0"/><feOffset dy="2"/><feGaussianBlur stdDeviation="2"/><feComposite in2="hardAlpha" operator="out"/><feColorMatrix type="matrix" values="0 0 0 0 0.00784314 0 0 0 0 0.278431 0 0 0 0 0.317647 0 0 0 0.15 0"/><feBlend in2="BackgroundImageFix" mode="normal" result="effect1_dropShadow_209_2194"/><feBlend in="SourceGraphic" in2="effect1_dropShadow_209_2194" mode="normal" result="shape"/></filter><g filter="url(#a)"><circle cx="44" cy="42" fill="#f7fbfe" r="40"/></g><g fill="#024751"><path d="m39.625 40.2031c.1906-.1118.3486-.2717.4582-.4636.1097-.1919.1672-.4091.1668-.6301v-11.25c.0017-.2014-.0452-.4002-.1368-.5795s-.2251-.3339-.3893-.4505-.3541-.1918-.5536-.2192c-.1995-.0275-.4026-.0063-.5922.0617-3.1646 1.1273-5.9036 3.2051-7.8419 5.949-1.9383 2.7438-2.9813 6.0197-2.9862 9.3791.0017.9954.0906 1.9888.2656 2.9687.0376.1958.1208.3799.243.5374s.2799.2839.4602.3689c.1663.0784.3473.121.5312.125.2198-.0013.4354-.0606.625-.1719zm-1.875-10.4531v8.6406l-7.4844 4.3281c-.0156-.25-.0156-.4843-.0156-.7187.0048-2.5337.7072-5.0171 2.0302-7.178 1.3229-2.1608 3.2154-3.9156 5.4698-5.072z"/><path d="m58.109 33.9375c-.0161-.0174-.027-.0391-.0312-.0625l-.0625-.0781c-1.43-2.4485-3.4764-4.4797-5.9354-5.8915-2.4589-1.4118-5.2448-2.1549-8.0802-2.1554-.3316 0-.6495.1317-.8839.3661-.2345.2344-.3661.5524-.3661.8839v14.2813l-12.3594 7.1406c-.1441.0796-.2708.1872-.3726.3165-.1019.1293-.1768.2776-.2205.4363s-.0552.3245-.0338.4877c.0213.1632.0751.3205.1581.4626v.0312l.0469.0782c1.8024 3.0854 4.5716 5.4907 7.8789 6.8436s6.9683 1.5779 10.4164.6403 6.491-2.9857 8.6578-5.8271c2.1667-2.8415 3.3364-6.3179 3.3282-9.8912.0038-2.8285-.7343-5.6084-2.1407-8.0625z"/></g></svg>