<svg fill="none" height="88" viewBox="0 0 88 88" width="88" xmlns="http://www.w3.org/2000/svg" xmlns:xlink="http://www.w3.org/1999/xlink"><filter id="a" color-interpolation-filters="sRGB" height="88" width="88" x="0" y="0"><feFlood flood-opacity="0" result="BackgroundImageFix"/><feColorMatrix in="SourceAlpha" result="hardAlpha" type="matrix" values="0 0 0 0 0 0 0 0 0 0 0 0 0 0 0 0 0 0 127 0"/><feOffset dy="2"/><feGaussianBlur stdDeviation="2"/><feComposite in2="hardAlpha" operator="out"/><feColorMatrix type="matrix" values="0 0 0 0 0.00784314 0 0 0 0 0.278431 0 0 0 0 0.317647 0 0 0 0.15 0"/><feBlend in2="BackgroundImageFix" mode="normal" result="effect1_dropShadow_208_2157"/><feBlend in="SourceGraphic" in2="effect1_dropShadow_208_2157" mode="normal" result="shape"/></filter><g filter="url(#a)"><circle cx="44" cy="42" fill="#f7fbfe" r="40"/></g><g stroke="#024751" stroke-linecap="round" stroke-linejoin="round" stroke-width="2.63605"><path d="m44 42h15"/><path d="m51.5 54.9844-15-25.9688"/><path d="m41.25 27.2502c.9066-.1706 1.8275-.2543 2.75-.25 3.1022-.002 6.1285.9589 8.6614 2.7501 2.5328 1.7912 4.4473 4.3243 5.4792 7.2499h-11.25z"/><path d="m59 42.0005c-.0003 2.6284-.6912 5.2105-2.0036 7.4878-1.3123 2.2773-3.2001 4.1698-5.474 5.4879-2.274 1.3181-4.8544 2.0156-7.4828 2.0225-2.6284.007-5.2124-.6768-7.4933-1.9829s-4.1786-3.1886-5.503-5.4589c-1.3243-2.2704-2.0289-4.8488-2.0431-7.4772-.0142-2.6283.6625-5.2142 1.9623-7.4987s3.1771-4.1874 5.4438-5.518"/></g></svg>