<svg fill="none" height="88" viewBox="0 0 88 88" width="88" xmlns="http://www.w3.org/2000/svg" xmlns:xlink="http://www.w3.org/1999/xlink"><filter id="a" color-interpolation-filters="sRGB" height="88" width="88" x="0" y="0"><feFlood flood-opacity="0" result="BackgroundImageFix"/><feColorMatrix in="SourceAlpha" result="hardAlpha" type="matrix" values="0 0 0 0 0 0 0 0 0 0 0 0 0 0 0 0 0 0 127 0"/><feOffset dy="2"/><feGaussianBlur stdDeviation="2"/><feComposite in2="hardAlpha" operator="out"/><feColorMatrix type="matrix" values="0 0 0 0 0.00784314 0 0 0 0 0.278431 0 0 0 0 0.317647 0 0 0 0.15 0"/><feBlend in2="BackgroundImageFix" mode="normal" result="effect1_dropShadow_208_2165"/><feBlend in="SourceGraphic" in2="effect1_dropShadow_208_2165" mode="normal" result="shape"/></filter><g filter="url(#a)"><circle cx="44" cy="42" fill="#f7fbfe" r="40"/></g><g stroke="#024751" stroke-linecap="round" stroke-linejoin="round" stroke-width="2.5"><path d="m26.5 55.75h35"/><path d="m46.5 55.75v-27.5c0-.3315-.1317-.6495-.3661-.8839s-.5524-.3661-.8839-.3661h-15c-.3315 0-.6495.1317-.8839.3661s-.3661.5524-.3661.8839v27.5"/><path d="m59 55.75v-17.5c0-.3315-.1317-.6495-.3661-.8839s-.5524-.3661-.8839-.3661h-11.25"/><path d="m34 33.25h5"/><path d="m36.5 43.25h5"/><path d="m34 49.5h5"/><path d="m51.5 49.5h2.5"/><path d="m51.5 43.25h2.5"/></g></svg>