<svg fill="none" height="88" viewBox="0 0 88 88" width="88" xmlns="http://www.w3.org/2000/svg" xmlns:xlink="http://www.w3.org/1999/xlink"><filter id="a" color-interpolation-filters="sRGB" height="88" width="88" x="0" y="0"><feFlood flood-opacity="0" result="BackgroundImageFix"/><feColorMatrix in="SourceAlpha" result="hardAlpha" type="matrix" values="0 0 0 0 0 0 0 0 0 0 0 0 0 0 0 0 0 0 127 0"/><feOffset dy="2"/><feGaussianBlur stdDeviation="2"/><feComposite in2="hardAlpha" operator="out"/><feColorMatrix type="matrix" values="0 0 0 0 0.00784314 0 0 0 0 0.278431 0 0 0 0 0.317647 0 0 0 0.15 0"/><feBlend in2="BackgroundImageFix" mode="normal" result="effect1_dropShadow_209_2193"/><feBlend in="SourceGraphic" in2="effect1_dropShadow_209_2193" mode="normal" result="shape"/></filter><g filter="url(#a)"><circle cx="44" cy="42" fill="#f7fbfe" r="40"/></g><g fill="#024751"><path d="m61.5 54.5h-1.25v-16.25c0-.663-.2634-1.2989-.7322-1.7678-.4689-.4688-1.1048-.7322-1.7678-.7322h-10v-7.5c0-.663-.2634-1.2989-.7322-1.7678-.4689-.4688-1.1048-.7322-1.7678-.7322h-15c-.663 0-1.2989.2634-1.7678.7322-.4688.4689-.7322 1.1048-.7322 1.7678v26.25h-1.25c-.3315 0-.6495.1317-.8839.3661s-.3661.5524-.3661.8839.1317.6495.3661.8839.5524.3661.8839.3661h35c.3315 0 .6495-.1317.8839-.3661s.3661-.5524.3661-.8839-.1317-.6495-.3661-.8839-.5524-.3661-.8839-.3661zm-18.75-11.25c0 .3315-.1317.6495-.3661.8839s-.5524.3661-.8839.3661h-5c-.3315 0-.6495-.1317-.8839-.3661s-.3661-.5524-.3661-.8839.1317-.6495.3661-.8839.5524-.3661.8839-.3661h5c.3315 0 .6495.1317.8839.3661s.3661.5524.3661.8839zm-8.75-11.25h5c.3315 0 .6495.1317.8839.3661s.3661.5524.3661.8839-.1317.6495-.3661.8839-.5524.3661-.8839.3661h-5c-.3315 0-.6495-.1317-.8839-.3661s-.3661-.5524-.3661-.8839.1317-.6495.3661-.8839.5524-.3661.8839-.3661zm0 16.25h5c.3315 0 .6495.1317.8839.3661s.3661.5524.3661.8839-.1317.6495-.3661.8839-.5524.3661-.8839.3661h-5c-.3315 0-.6495-.1317-.8839-.3661s-.3661-.5524-.3661-.8839.1317-.6495.3661-.8839.5524-.3661.8839-.3661zm13.75-10h10v16.25h-10z"/><path d="m54 48.25h-2.5c-.3315 0-.6495.1317-.8839.3661s-.3661.5524-.3661.8839.1317.6495.3661.8839.5524.3661.8839.3661h2.5c.3315 0 .6495-.1317.8839-.3661s.3661-.5524.3661-.8839-.1317-.6495-.3661-.8839-.5524-.3661-.8839-.3661z"/><path d="m51.5 44.5h2.5c.3315 0 .6495-.1317.8839-.3661s.3661-.5524.3661-.8839-.1317-.6495-.3661-.8839-.5524-.3661-.8839-.3661h-2.5c-.3315 0-.6495.1317-.8839.3661s-.3661.5524-.3661.8839.1317.6495.3661.8839.5524.3661.8839.3661z"/></g></svg>