<svg fill="none" height="88" viewBox="0 0 88 88" width="88" xmlns="http://www.w3.org/2000/svg" xmlns:xlink="http://www.w3.org/1999/xlink"><filter id="a" color-interpolation-filters="sRGB" height="88" width="88" x="0" y="0"><feFlood flood-opacity="0" result="BackgroundImageFix"/><feColorMatrix in="SourceAlpha" result="hardAlpha" type="matrix" values="0 0 0 0 0 0 0 0 0 0 0 0 0 0 0 0 0 0 127 0"/><feOffset dy="2"/><feGaussianBlur stdDeviation="2"/><feComposite in2="hardAlpha" operator="out"/><feColorMatrix type="matrix" values="0 0 0 0 0.00784314 0 0 0 0 0.278431 0 0 0 0 0.317647 0 0 0 0.15 0"/><feBlend in2="BackgroundImageFix" mode="normal" result="effect1_dropShadow_212_2200"/><feBlend in="SourceGraphic" in2="effect1_dropShadow_212_2200" mode="normal" result="shape"/></filter><g filter="url(#a)"><circle cx="44" cy="42" fill="#f7fbfe" r="40"/></g><g fill="#024751"><path d="m61 28.6667h-12v33.3333h14.6666v-30.6667c0-.7072-.2809-1.3855-.781-1.8856s-1.1784-.781-1.8856-.781zm-6.6667 22.6666h-2.6666v-2.6666h2.6666zm0-6.6666h-2.6666v-2.6667h2.6666zm0-6.6667h-2.6666v-2.6667h2.6666zm5.3334 13.3333h-2.6667v-2.6666h2.6667zm0-6.6666h-2.6667v-2.6667h2.6667zm0-6.6667h-2.6667v-2.6667h2.6667z"/><path d="m43.5066 22h-15.6799c-.7497 0-1.4687.2978-1.9988.8279s-.8279 1.2491-.8279 1.9988v37.1732h6.6667v-4h7.9999v4h6.6667v-37.1732c0-.7497-.2978-1.4687-.8279-1.9988s-1.2491-.8279-1.9988-.8279zm-11.8399 29.3333h-2.6667v-2.6667h2.6667zm0-6.6667h-2.6667v-2.6666h2.6667zm0-6.6666h-2.6667v-2.6667h2.6667zm0-6.6667h-2.6667v-2.6666h2.6667zm5.3333 20h-2.6667v-2.6667h2.6667zm0-6.6667h-2.6667v-2.6666h2.6667zm0-6.6666h-2.6667v-2.6667h2.6667zm0-6.6667h-2.6667v-2.6666h2.6667zm5.3333 20h-2.6667v-2.6667h2.6667zm0-6.6667h-2.6667v-2.6666h2.6667zm0-6.6666h-2.6667v-2.6667h2.6667zm0-6.6667h-2.6667v-2.6666h2.6667z"/></g></svg>