<svg fill="none" height="88" viewBox="0 0 88 88" width="88" xmlns="http://www.w3.org/2000/svg" xmlns:xlink="http://www.w3.org/1999/xlink"><filter id="a" color-interpolation-filters="sRGB" height="88" width="88" x="0" y="0"><feFlood flood-opacity="0" result="BackgroundImageFix"/><feColorMatrix in="SourceAlpha" result="hardAlpha" type="matrix" values="0 0 0 0 0 0 0 0 0 0 0 0 0 0 0 0 0 0 127 0"/><feOffset dy="2"/><feGaussianBlur stdDeviation="2"/><feComposite in2="hardAlpha" operator="out"/><feColorMatrix type="matrix" values="0 0 0 0 0.00784314 0 0 0 0 0.278431 0 0 0 0 0.317647 0 0 0 0.15 0"/><feBlend in2="BackgroundImageFix" mode="normal" result="effect1_dropShadow_129_2107"/><feBlend in="SourceGraphic" in2="effect1_dropShadow_129_2107" mode="normal" result="shape"/></filter><g filter="url(#a)"><circle cx="44" cy="42" fill="#f7fbfe" r="40"/></g><path d="m49.5166 36.4837c4.6677 4.6726 4.6037 12.1639.0281 16.7649-.0086.0093-.0187.0195-.0281.0289l-5.25 5.25c-4.6305 4.6304-12.164 4.6298-16.7937 0-4.6305-4.6297-4.6305-12.1641 0-16.7938l2.8989-2.8989c.7687-.7687 2.0926-.2578 2.1323.8286.0506 1.3845.2989 2.7755.757 4.1188.1552.4549.0443.958-.2955 1.2978l-1.0224 1.0225c-2.1896 2.1895-2.2582 5.7547-.0903 7.9656 2.1894 2.2327 5.788 2.246 7.9942.0398l5.25-5.2492c2.2024-2.2024 2.1932-5.7623 0-7.9555-.2892-.2885-.5804-.5128-.8079-.6694-.161-.1105-.2938-.2571-.3881-.4281-.0942-.171-.1472-.3617-.1546-.5568-.031-.8255.2615-1.6762.9139-2.3285l1.6448-1.645c.4313-.4313 1.108-.4843 1.6081-.1352.5728.4 1.1093.8495 1.6033 1.3435zm11.0106-11.0111c-4.6298-4.6298-12.1633-4.6305-16.7938 0l-5.25 5.25c-.0094.0094-.0195.0195-.0281.0289-4.5755 4.601-4.6396 12.0923.0281 16.7649.494.4939 1.0304.9435 1.6032 1.3434.5002.3491 1.1769.296 1.6081-.1352l1.6449-1.6449c.6523-.6524.9448-1.5031.9139-2.3286-.0075-.1951-.0605-.3858-.1547-.5568s-.2271-.3176-.3881-.4281c-.2275-.1566-.5187-.3808-.8078-.6694-2.1932-2.1932-2.2025-5.7531 0-7.9555l5.25-5.2492c2.2061-2.2062 5.8046-2.1929 7.9941.0398 2.168 2.211 2.0994 5.7761-.0902 7.9656l-1.0225 1.0225c-.3398.3398-.4507.8429-.2955 1.2978.4581 1.3433.7064 2.7343.757 4.1188.0398 1.0864 1.3636 1.5974 2.1324.8286l2.8989-2.8989c4.6305-4.6296 4.6305-12.164.0001-16.7937z" fill="#024751"/></svg>