<svg fill="none" height="88" viewBox="0 0 88 88" width="88" xmlns="http://www.w3.org/2000/svg" xmlns:xlink="http://www.w3.org/1999/xlink"><filter id="a" color-interpolation-filters="sRGB" height="88" width="88" x="0" y="0"><feFlood flood-opacity="0" result="BackgroundImageFix"/><feColorMatrix in="SourceAlpha" result="hardAlpha" type="matrix" values="0 0 0 0 0 0 0 0 0 0 0 0 0 0 0 0 0 0 127 0"/><feOffset dy="2"/><feGaussianBlur stdDeviation="2"/><feComposite in2="hardAlpha" operator="out"/><feColorMatrix type="matrix" values="0 0 0 0 0.00784314 0 0 0 0 0.278431 0 0 0 0 0.317647 0 0 0 0.15 0"/><feBlend in2="BackgroundImageFix" mode="normal" result="effect1_dropShadow_208_2151"/><feBlend in="SourceGraphic" in2="effect1_dropShadow_208_2151" mode="normal" result="shape"/></filter><g filter="url(#a)"><circle cx="44" cy="42" fill="#f7fbfe" r="40"/></g><g stroke="#024751" stroke-linecap="round" stroke-linejoin="round" stroke-width="4.5"><path d="m43.1094 33.1564 3.0937-3.0938c1.3099-1.1939 3.0294-1.8371 4.8012-1.7961s3.4597.7632 4.7129 2.0164 1.9754 2.9411 2.0164 4.7129-.6022 3.4913-1.7961 4.8012l-4.4219 4.4062c-.6373.6397-1.3946 1.1473-2.2285 1.4936-.8338.3463-1.7279.5246-2.6309.5246-.9029 0-1.797-.1783-2.6308-.5246-.8339-.3463-1.5912-.8539-2.2285-1.4936"/><path d="m44.8917 50.8438-3.0937 3.0938c-1.3099 1.1938-3.0294 1.8371-4.8012 1.7961-1.7719-.041-3.4597-.7632-4.713-2.0164-1.2532-1.2532-1.9753-2.9411-2.0163-4.7129s.6022-3.4913 1.7961-4.8012l4.4219-4.4062c.6372-.6397 1.3945-1.1473 2.2284-1.4936s1.728-.5246 2.6309-.5246c.903 0 1.797.1783 2.6309.5246s1.5912.8539 2.2285 1.4936"/></g></svg>