<svg fill="none" height="1014" viewBox="0 0 442 1014" width="442" xmlns="http://www.w3.org/2000/svg"><g stroke="#f7fbfe" stroke-linecap="round" stroke-linejoin="round" stroke-opacity=".5" stroke-width=".820421"><path d="m.999995 688.168 20.953505 17.368 40.9308 33.9.1477.123.6645.328 28.5589 14.136 34.4246 17.04 2.863 8.024 2.232 6.916 1.748 6.071 1.099 5.128.632 4.397.032 3.618-.377 2.987-.886 2.354-1.198 1.805-1.583 1.329-57.8399-4.996-65.01011-22.151-7.391991-4.636"/><path d="m.999971 198.492 11.141329 74.248 24.6618 86.677 1.0584 3.725 1.4685 32.644 2.4121 32.054 3.2488 31.267 3.9791 30.232 4.5861 29.043 5.0866 27.73 5.4805 26.286 5.7593 24.818 5.9398 23.243 6.0383 21.716 6.0137 20.1 5.9399 18.599 5.7347 17.016 5.5301 15.596 5.16 14.095 4.832 12.799 4.34 11.403.14.05 25.515 8.105 32.981 10.477h.024l51.81 1.953 44.573-10.1 1.912 1.83 1.329 1.493.615 1.116.058.869-.64.599-3.29 1.469-.82.369-6.982 3.356-8.442 4.044-3.643 1.748-4.865 1.969-12.454 5.193-.46 1.37-.943 1.059-1.567.697-4.816 1.411-22.955 26.344-1.945 1.821-1.755 1.641-31.824 29.732-10.723.205-10.231-.402-9.829-1.099-9.27-1.51-8.746-1.977-8.155-2.199-7.548-2.453-6.9325-2.502-6.2598-2.552-5.6445-2.486-4.9389-2.362-4.34-2.232-3.6263-1.969-3.0602-1.821-2.3874-1.493-1.8459-1.371-1.2389-1.025-.7712-.976-.2543-.681.1313-.739.5168-.549.7958-.722 7.3428.024 17.1796-1.296 1.1322-.09.4184-.025.763-.065.804-.099 1.0009-.09 1.8049-.033 2.8305-.123.7217-.025 3.922-.18.509-.049 2.953-.033 1.674-.017 5.152-.049 6.022-.057 2.535-.033h.558l1.518.016 2.034-.164h.025l.024.008 4.242.952 4.865 1.017 5.538 1.026 6.137.984 6.744.813 7.334.656 7.868.287 10.099-8.86 7.13-6.982 1.14-.993 1.108-1.025 5.62-2.117 5.939-1.37 2.601-.55.025-.008 5.628-2.027 1.657-.492 9.205-2.748 5.948-1.895 3.331-1.19 6.137-1.829"/><path d="m.99999 642.208 3.92161 4.193 45.8451 48.954.9025.968.2543.172 20.2316 14.062 42.2849 29.38.631.443.271.106 22.841 8.656 35.745 13.553.066.025 4.077 7.695 3.422 6.654 2.887 5.825 2.191 4.931 1.649 4.266.943 3.52.435 2.969-.221 2.355-.689 1.879-1.256 1.386-1.632.977-2.076.582-3.954.517-17.377 14.275-40.225 25.064-47.7157 20.568-8.9919-4.365-8.36-4.454-7.671-4.587-7.0474-4.52-6.3254-4.439-5.7102-4.282-4.9881-4.037-4.3975-3.856-3.7083-3.495-3.1586-3.322-2.5105-2.929-2.02642-2.839-1.46855-2.461-1.05014-2.486-.60711-2.215-.28715-2.371.01641-2.265.23792-2.576.3774-2.682.47584-3.151.45123-3.487.43483-4.118.25433-4.701.13126-5.481-.16408-6.3-.3774-7.228-.76299-8.27-1.00911-9.328-1.42754-10.567-1.68186-11.732-2.06746-13.143-.032817-.247"/><path d="m.999994 625.184 45.238006 52.614.763.894.361.419 17.7703 13.701 43.1047 33.218 1.091.845.911.706 20.117 8.992 38.863 17.368.197.09 21.987 3.446 31.078 4.865 46.107-5.242 34.876-13.242 4.152-1.575 12.823-8.262 3.889-2.502 3.667-2.363 6.432-4.143 1.986-.484 1.649-.394.106-.082.812-.615.165-.123.828-1.264-.065-.566.196-.123 1.666-.369 1.083-.476 9.96-10.345"/><path d="m.999993 607.381 41.439407 52.433.4103.525 14.7675 12.61 46.2968 39.545.795.681.37.311 17.433 9.033 40.784 21.11.968.5 19.05 4.242 34.326 7.654.238.049 4.603 6.268 4.044 5.44"/><path d="m.999992 588.733 36.771208 50.71.5169.722 12.052 11.346 46.2225 43.556 1.5588 1.477 1.4275 1.346 14.4231 8.573 44.303 26.352.393.23 53.984 15.727 47.511.64 4.504 4.184 3.921 3.503 3.233 2.831 2.633 2.338"/><path d="m75.8388 792.616-1.4358-.295-24.7274-12.167-38.4778-18.935-3.24884-1.6-.73017-.353-6.218792-5.07"/><path d="m.999992 569.289 32.127708 48.273.5743.862 9.1641 9.517 49.2662 51.186 1.1322 1.181.5497.566 11.6258 7.852 45.64 30.823 1.517 1.034 13.332 4.865 40.545 14.816.435.156 48.093 3.938 41.399-7.728 34.785-15.76 16.007-11.576 9.714-7.015 3.011-2.182"/><path d="m127.484 815.096-56.2068-2.002-63.57436-17.729-6.702841-3.692"/><path d="m.999992 548.984 27.566108 45.238.6646 1.082 6.5223 7.45 51.4896 58.808.6317.713 8.598 6.564 47.9047 36.541 1.222.927.583.443 10.435 4.619 43.466 19.231.534.238 11.592 1.797 37.075 5.759 42.087-4.914 35.582-13.586 4.233.976 3.619.517 2.953.115 23.636-20.749.706-1.017 1.222-.419.813-.27 1.189-1.075 1.313-1.083"/><path d="m.999991 527.808 23.209709 41.62.7056 1.272 3.8477 4.832 52.3757 65.741.722.902 5.7429 4.914 49.7504 42.531 2.067 1.772 7.261 3.815 45.23 23.743 1.321.697.648.337 8.516 1.969 39.946 9.238.624.147 42.776-1.813 5.628 3.955 5.03 3.15 4.372 2.429 26.549-13.784 3.184-1.657 2.945-1.534 1.354-.697 25.145-19.953.599-1.157 17.73-18.755"/><path d="m120.839 815.276-42.4897 13.553-52.991 6.67-24.3583-1.903"/><path d="m.99999 505.69 19.12401 37.608.7712 1.502 1.4029 1.936 51.1532 70.449 2.3711 3.274 2.7648 2.642 53.0648 50.661.788.746 4.135 2.535 47.863 29.265 2.256 1.378 5.119 1.6 43.589 13.602.722.23 43.376 1.485 37.042-8.598 30.922-15.457 23.168-17.992 2.15-1.673 16.589-17.943 1.616-1.756 1.641-.795 1.862-1.165"/><path d="m114.817 815.334-40.094 11.526-53.7622 4.784-19.9608-2.289"/><path d="m109.665 815.382-38.0022 9.657-54.4103 3.109-16.2525-2.486"/><path d="m.99999 482.513 15.42391 33.334.8122 1.747 51.7768 78.309.8696 1.313 52.7775 55.986 2.601 2.756.829.583 52.203 36.755.861.607 1.649.648 47.117 18.664.845.337 43.909 5.062 37.707-5.784 6.161 3.175 5.513 2.297 4.898 1.592 13.168-8.59 15.596-10.165.681-.443 18.755-17.541 4.405-4.118.796-.739 14.358-17.549 1.919-2.1 2.01-2.962 1.28-1.673 1.748-2.076 4.717-8.114"/><path d="m104.668 815.514-35.3926 8.032-55.1815 1.28-13.0939-2.445"/><path d="m220.413 793.666-23.554 25.4-.607.525-1.296 1.116-1.141.985-33.571 28.911-43.942 28.994-52.6547 23.981-62.39297 16.023-.25433-.173"/><path d="m336.24 726.531-12.93 30.109-7.597 15.375-4.651 7.441-17.467 33.022-5.341 8.237-7.893 11.502-9.623 13.381-25.171 36.78-4.651 5.997-2.437 3.643-6.014 7.4-23.431 28.854-1.058 1.009-1.165 1.059-10.091 8.885-13.201 10.116-13.873 9.139-14.686 8.016-15.219 6.784-15.908 5.399-16.244 3.954-16.7611 2.355-16.8925.796-17.1796-.944-17.0648-2.51-17.1221-4.275-16.78585-5.726-4.783051.648"/><path d="m266.636 773.369-18.878 28.214-2.749 3.438-2.387 2.978-26.122 32.587-5.841 5.866-32.612 32.784-7.253 5.694-39.552 31.028-56.9866 32.16-68.47235 24.211-4.78305-2.125"/><path d="m.999989 458.13 12.207811 29.134.8369 2.001 47.33 78.572 1.805 3.003.9435 1.559 52.9168 62.22.96 1.141 50.448 40.422 1.87 1.501.969.78 48.708 23.62.952.459 43.375 8.631.952.189 38.338-2.716 6.769 4.184 31.643-13.266 25.146-17.475.853-.591 2.33-2.322 16.425-16.31 2.166-2.157 12.955-17.393 1.526-2.051 1.181-1.584.746-1.009 1.026-1.829 9.82-17.582 1.592-2.855 3.52-2.97 2.527-3.889 1.46-2.732 4.767-13.742.032-1.928.247-3.388"/><path d="m210.921 796.693-23.407 23.497-1.517 1.214-35.984 28.797-45.008 26.803-53.5655 21.413-50.4395 9.936"/><path d="m274.438 769.644-16.006 25.671-3.126 4.159-27.156 36.123-3.503 3.815-2.987 3.249-30.61 33.35-7.359 6.268-38.281 32.653-4.881 3.093-50.6282 32.119-67.3319 27.911-21.5689 4.307"/><path d="m75.24 6.05373-1.0747 1.35371-14.2425 17.92616-3.3966 4.2744-10.8459 38.0265-1.3783 4.8322-3.2571 59.5953 6.9654 71.27 16.9745 75.93 23.7183 69.227 1.5424 4.504 29.0835 61.729 1.838 3.897 31.693 50.89 2.035 3.257 31.865 38.577 2.084 2.518 32.316 28.567 29.363 17.188 25.81 7.794 21.955.082 18.205-5.808 14.62-10.453 11.42-13.832 8.532-16.457 6.104-18.271 4.004-19.6-8.729-12.438-8.762-14.259 3.847-18.344-7.851-14.497-7.523-15.596-7.089-16.515-6.489-16.975-5.817-17.188-5.005-16.867 6.629-7.392-3.798-14.013-3.077-13.127-2.33-11.904-1.641-10.567-.992-9.05-.427-7.531.066-5.964.484-4.513.82-3.117 1.075-1.896 1.739-1.091 1.428.394 1.075.821 1.681 1.353 1.682 2.035.558.722.862 1.559 1.189 1.476 1.461 1.994 1.542 2.141.837.87.443.582 1.288 1.567 1.025 1.067.14.156.303.484.632 1.042.419.648.336.345.673.566.402.5.746.837 1.009 1.247.32.402 1.19.993 1.452 1.731 1.46 1.034 1.248-.091 1.353.542 1.452-.017.271.214 1.682.41 2.166-.771 1.624.082.829 1.419 1.149-.861.951-1.198 1.723-.903.648.411.73 1 .796 1.608.894 2.068 1.617 2.231 2.116 2.371 1.403 3.126 1.37 3.512 1.329 3.905 1.551 4.151 1.034 4.832-.665.435-.311.222-.476.262-.123.173.484 1.37.221.303.46.337.229.402.681 1.156.862 1.174 1.124 1.107.385.132.132.049-.025.197-.041.311.164.69-.222 1.665.468.566 1.674 3.914 1.239 1.886 1.887 8.229.008.025 2.354 10.953 2.101 2.904.024.106 3.339 13.948 2.486 3.052 2.355 2.715 2.182 2.412.107.353 5.086 16.4 2.363 2.043 2.125 1.665 1.863 1.338.065.172.878.714 1.362.607 1.222.697 1.329.624.566.262.296.156 1.682 3.618.229.452.082.139 2.322 4.964 1.083 2.42 1.493 3.372-.254.344-.558.173-.869.049-1.174-.156-1.493-.377-1.805-.681-2.116-1.01-2.421-1.411-2.732-1.854-3.002-2.338-3.282-2.88-3.512-3.445-3.732-4.045-3.897-4.635-4.045-5.227-4.127-5.8-4.159-6.325-4.135-6.769-4.061-7.154-3.922-7.408-3.749-7.565 1.796-10.066 1.682-8.106 1.649-6.087 1.625-4.045 2.01-2.625.139-1.051-.599-3.38 1.1-.738.476-.312.484-.303.492-.312.509-.287 1.025-.517-.377-4.759-1.518-3.864-.361-4.045 1.542-.771 1.026-.443 1.025-.402 1.018-.295.992-.213.977-.082.935.041.902.205.87.361.812.558.755.738.706.952.64 1.148.574 1.354.509 1.559-2.027 2.748-1.813 3.183.353 1.018.303 1.14.263 1.264-1.78 2.691-1.879 2.6-1.461 4.135.066 1.928.5.238.124.484.008.443-.041.263.033.197-.345.188-.435-.681.246-.845-.484-.049-.172-.016-.107-.246-.074-.222.386-.771.353-.821-.115-.18-.123-.156-.131-.115-.148-.09-.566-.033-.574-5.595-.107-5.234-.976-4.562-1.346-3.987-1.214-3.627-1.428-3.101-1.657-2.559-1.124-2.388-.344-2.354-.255-1.814-.188-1.632 2.141-1.305 2.125-1.001.311-.943.608-.049.812-.534.91-1.074 1.789-.772 2.502-.221.952-2.067.377-1.067 1.502-.927.992-.919 1.313-.615 1.518-.862 1.969-1.624 1.329-.689 1.132.188 2.141.312 1.846.197 1.477-2.642.788-1.337 1.091-.263 1.042-.008 2.149.082 2.265-.123 2.207.706 2.305.804 2.223 1.829 1.846 2.421 2.035 1.862.377.656.624.927 1.296 2.864 1.493 4.34 1.493 1.673 1.691 4.308.697 4.988 1.838 6.653.5 2.068 1.255 7.113.624 7.958 1.198 8.787.295 2.124 1.674 10.297.82 7.736.205 6.17.107 3.035.049.895.099 9.763-.165 11.272.378 11.535-.435 10.264-.779 11.88.065 8.885-.484 7.712-.221 3.511"/><path d="m.999988 432.295 1.821332 4.84 8.58978 22.743 46.2389 84.421.9927 1.813 51.0383 66.331 1.058 1.378 49.308 44.648 2.075 1.87 1.067.976 48.446 27.993 1.075.615 43.572 12.504 1.058.303 38.88.542 7.392 5.373 32.325-10.895 26.68-16.269 20.683-18.722.861-.771 13.299-16.564 1.657-2.068 2.002-2.494 4.233-2.19 3.586-2.56 2.953-2.822 8.549-18.148.468-1.797"/><path d="m71.63 2.09132-.6317.44296-6.5224 4.57801-8.9343 6.27621-6.3993 4.4795-12.9381 9.0082-12.7903 11.0428-12.5524 12.9627-9.8615 47.8551"/><path d="m257.119 357.604-4.365-27.016-2.863-25.483-1.378-23.103-12.356-9.853.854-21.109-11.798-13.619 3.183-17.598 4.184-13.783 4.923-9.887 5.415-6.325 5.685-2.978 5.759-.123 5.694 2.379 5.497 4.324"/><path d="m325.731 734.161-11.224 24.785-4.93 9.098-22.406 41.325-10.042 15.194-24.572 37.214-7.17 8.77-5.037 6.162-31.135 38.1-8.763 8.344-5.381 5.136-40.111 38.207-4.455 3.134-12.421 8.729-6.727 4.726-43.0396 30.245"/><path d="m.999984 341.434 6.752066 25.876 36.13135 89.057 1.1075 2.74 41.3246 72.14 2.4121 4.208 1.2716 2.224 44.3688 56.01 2.559 3.224 1.379 1.747 46.37 41.227 1.411 1.247 43.187 24.768 1.419.812 39.897 11.511 9.09 10.034 34.097-2.527 8.032 5.291 7.384 3.947 6.744 2.781 6.087 1.813 5.44.984 4.791.345 4.143-.197 3.52-.599 2.855-.902 2.256-1.083 11.363-13.119"/><path d="m.999987 404.672 8.425723 24.973 7.01459 14.112 36.0739 72.517 1.0419 2.108 48.8889 70.146 1.132 1.633 50.169 50.972 1.181 1.198 47.995 32.448 1.181.804 43.614 16.482 1.181.451 39.339 4.029 7.983 6.727 32.973-8.303 27.336-14.3 22.168-18.041 5.464-.64 4.783-1.279 4.135-1.781 3.487-2.125 12.495-18.631.615-.419 3.495-5.685.935-1.518"/><path d="m88.2605 3.29713-1.485 1.35372-13.4139 12.23235-4.1923 3.8232-11.773 31.3565-1.7311 4.619-5.5871 52.8351 3.8642 65.273 13.3975 71.721 21.6837 71.327 27.7305 65.38 29.092 51.694 2.002 3.553 29.929 40.594 2.108 2.863 30.971 31.242 28.608 20.199 25.4 10.485 21.922 2.658 18.336-3.749 14.981-8.582 11.831-12.429 9.106-15.178 6.687-17.295 4.717-18.64 3.068-19.517-7.982-13.086 2.601-18.689 1.722-18.394 1.083-17.68.722-16.433.509-14.85.459-12.905.484-10.748.583-8.458.689-6.112.788-3.799 1.534-1.214-.484-3.807-1.116-4.799.041-5.038 1.362-.705.681-.287.689-.247.673-.18.673-.131.648-.033.631.049.608.156.582.263.558.385.509.501.484.631.435.763-1.543 3.996-1.304 4.487.229.37.205.434.181.493.164.558.131.615.123.656.091.714-1.559 3.208-.41 1.042.131.213.213.378.164-.041-.164-.345-.172.057-.082-.131"/><path d="m182.813 155.305 8.877 23.759 10.395 22.069 11.347 19.658 11.781 16.63-1.936 21.445 12.88 13.283.591 24.301 13.143 8.655 12.167 5.259 11.084 2.305 10.034.173 9.008-1.493 8.089-2.453 7.236-3.036 6.531-3.085 5.874-2.871 5.341-2.363 4.865-1.69 4.471-.894 4.102-.05"/><path d="m.999986 374.685 7.178684 24.039 40.79133 90.615 44.155 69.883 3.5032 5.546 46.2718 52.507 2.42 2.749 1.28 1.444 47.297 36.869 1.305 1.018 43.498 20.601 1.297.615 39.683 7.687 8.557 8.286 33.572-5.521 27.968-12.142 6.752 1.788 6.088.813 5.406.016 4.759-.615 4.102-1.116 3.47-1.469 2.864-1.485.681-.492.426-.459 1.075-1.165 5.661-7.991"/><path d="m84.7246 1.00007-8.4012 3.69189-4.9635 2.18235-9.1641 4.02829-.6399 1.0747-14.6856 24.4239-2.7402 4.5616-10.5013 49.7667-.5907 66.2405 10.3947 76.546 20.6664 79.482.5169 34.031 1.8131 34.031 2.9617 33.473 37.0251 70.335 1.641 3.117 6.818 30.438 7.425 28.69 7.859 26.746 8.147 24.801 8.295 22.808 8.327 20.863 8.262 18.985 8.097 17.146 7.868 15.441 7.54 13.783 7.187 12.298 6.735 10.854 6.293 9.583 5.743 8.351 5.226 7.302 46.788-2.477 39.865-12.668 3.084 1.354 2.478.993 1.657 1.238 1.305-.172 3.396-2.51 4.775-3.832 4.504-3.839.952-1.149 3.159-2.445 3.347-2.494.525-.418.32-.378.041-.508 1.14-.755 1.641-.902.501-1.248 2.207-1.731 1.165-.812 16.753-15.99 4.446-4.348 2.207-1.936 1.19-1.075 1.313-1.083 9.754-11.896 3.077-3.725.607-1.198 1.017-1.05 2.445-2.576 1.518-1.46.345-.287 1.591-1.945 4.069-6.046 5.276-7.975 2.305-3.043 1.28-1.674 9.139-15.842 1.961-3.553 1.042-1.099 2.043-2.97.123-.205 1.731-2.995 6.334-14.152.074-.164 1.468-3.487 5.029-15.662 1.231-2.74 1.846-3.995 1.723-7.917 1.821-9.361-.402-.616 2.642-18.5.148-1.034 1.567-3.388 1.009-3.364.229-18.968-1.681-18.074-3.266-17.434.156-2.486-4.611-16.622-.287-2.042"/><path d="m1 31.5356 14.0292-18.5498 14.1276-4.74191"/><path d="m290.658 759.347-11.183 20.388-1.206 1.846-2.239 3.396-24.597 37.411-1.649 2.06-2.256 2.847-30.725 38.641-4.856 4.882-3.29 3.298-34.786 34.933-5.448 4.209-4.43 3.43-42.76 33.046-6.629 3.61-57.8482 31.496-55.7558 18.09"/><path d="m118.525 20.0579-11.166 19.9609-6.112 32.382-.041 42.1372 6.194 48.339 11.921 50.234-4.061 30.725-2.265 33.005-.467 34.811 25.351 55.058 4.241 36.279 27.731 41.768 2.084 3.142 29.428 33.67 27.558 22.718 24.875 13.241 11.068 26.319 11.469 23.563 11.535 20.527 11.461 17.63 11.142 14.743 10.739 12.11 10.19 9.64 9.59 7.466 8.927 5.513 8.245 3.839"/><path d="m304.031 396.262-6.801-21.618-5.776-21.405-4.709-20.83-3.569-19.567-2.478-18.008-1.411-15.966-.468-13.783.378-11.371 1.066-9.016 1.625-6.679 2.051-4.536 2.363-2.56 2.543-.894 2.666.574 2.699 1.706 2.429 2.396.361.853 2.354 3.003 2.847 3.733 1.805 2.519 1.059 1"/><path d="m101.124 2.6659-1.8787 1.13218-12.1914 7.41662-5.0128 3.052-12.3391 25.0228-2.1413 4.34-7.4658 45.8861 1.0583 58.9884-6.7849 24.727-.4266 1.559-5.9316 28.543-4.578 30.183-3.2652 31.561-1.9773 32.341-.7301 32.85 30.5524 80.647 1.3783 3.618 3.9873 32.694 4.8569 31.529 5.5953 30.224 6.1695 28.699 6.629 27.09 6.9488 25.392 7.162 23.661 7.261 21.938 7.261 20.199 7.179 18.549 6.981 16.885 6.761 15.358 6.415 13.832 6.071 12.462 5.596 11.084 5.152 9.903 4.578 8.688 52.531 5.062 3.356 4.586 2.789 3.938 2.068 3.257 1.485 2.749.779 2.198.296 2.355-.526.829-5.718 1.32-8.048 1.855-8.147 1.878-25.261 5.834-54.976-1.379-22.201-6.465-37.0581-10.813-2.2479-.648-2.3464-8.368-2.1003-9.214-2.6336-10.493-3.0027-11.641-3.4704-13.062-3.7657-14.332-4.1267-15.843-4.3072-17.212-4.5123-18.771-4.5616-20.174-4.5861-21.742-4.4713-23.119-4.3154-24.604-4.0201-25.901-3.6591-27.205-3.1914-28.329-2.6336-29.388-1.2634-19.181-.722-11.051-1.24704-30.922-.42662-31.414.47585-31.627-7.227912-32.3"/><path d="m171.18 807.556-16.121 12.339-41.046 23.521-48.5526 18.402-56.93714 10.584-7.52326-5.965"/><path d="m338.053 724.144-7.728 18.64-2.371 4.635-1.403 2.872-3.241 6.35-8.204 13.807-8.622 13.439-9.378 13.044-9.935 12.438-10.633 11.79-11.067 10.936-11.675 10.058-11.962 9.025-12.453 7.95-12.578 6.809-12.905 5.62-12.848 4.455-13.003 3.224-12.782 2.141-12.75.968-12.38.025-12.158-1.017-11.675-1.756-11.297-2.592-10.7314-3.102-10.2142-3.716-9.6071-4.004-56.1742 13.176-17.2781.624"/><path d="m113.823 4.11733-2.207.73018-10.665 3.54418-4.3894 1.45216-1.608.53325-12.4868 19.1158-2.5187 3.856-9.0082 39.0684-10.846 17.0976-10.0173 20.0021-9.0329 22.545-8.0073 24.908-6.8997 26.811 14.0292 81.296 23.1605 77.636 1.288 4.316 30.6263 71.589 1.6491 3.848 34.9422 60.416 1.854 3.208 36.205 46.92 1.977 2.568 35.007 33.128 1.994 1.879 34.154 21.987 11.1 20.765 30.446 7.687 25.901-.713 21.462-6.974 17.229-11.592 13.422-14.875 9.96-17.261 6.973-18.911 4.365-20.15 2.191-20.986-7.967-7.056 1.018-21.347-7.688-8.426-7.9-10.001 1.05-20.666.131-20.461-.517-19.83-.845-18.697-.993-17.172-.943-15.227-3.438-5.693-.139-11.937.008-9.55.189-7.105.353-4.635 1.181-2.207-.509-5.079-2.198-4.176-2.339-3.675-2.403-3.323-2.281-3.134-2.453-2.789-2.658-2.494-2.224.5-1.887-2.617-1.764-2.182-.746-.074-1.354-.164-1.879-.451-.418-.96-1.173-1.141-.968-1.066-1.37-1.124-2.273-.681-2.478-1.608-.672.426-4.554-5.48-3.921-5.62-.353-.435-4.078-5.431-1.181-1.961-2.634-3.372-1.534-.845-1.419-.09-4.931-6.793-4.053-6.186-2.19-.295-5.833-7.204-5.916-7.564-5.939-7.983-5.866-8.261-4.341-.378-4.241 1.928-4.02 4.513-3.61 7.49-3.019 10.625-2.207 13.979-1.198 17.213 10.961 7.933 10.28 5.563 9.558 3.782 8.795 2.33 8.081 1.403 7.375.787 6.761.558 6.169.534 5.661.754 5.202 1.083 4.799 1.518 1.091 3.29 4.316 1.026 1.156 2.756 3.815.788 1.141 2.182 3.7.533.287-.377-1.6-1.469-2.158-.943-.147-1.19-1.584-2.051-.549-.32-.722-.073-.87-.919-.263-.813-1.386-1.829-1.149-1.075-.886-.96-.845-2.084-1.591-2.805-.55-.69-1.944-2.666-1.28-.468-1.764-1.854.328-.902-.935-1.313-.181-.123-1.124-.976-1.632-1.264-1.059-1.288-.246-.476-.467-.59-.509-.607-.435-.509-.402-.542-.312-.426-.27-.378-.993-1.197-.476-.542-.624-.697-.992-.763-.451-.968-1.215-1.945-.648-.902-2.01-2.593-1.395-1.649-1.903-2.338-.459-.771-1.896-2.133-1.493-1.953-.828-1.46-1.699-1.28-1.878-1.034-.263-1.034-2.527-4.61-.197-.73-1.977-2.601-1.665-2.199-2.175-2.387-4.069-4.989-1.222-1.698-3.659-5.078-1.059-1.895-3.708-4.8-4.2-3.757-4.299-2.207-1.198-1.805-4.496-6.744-1.28-2.051-4.094-6.514-4.939-8.459-4.356-7.917-6.966-5.447-4.184-8.935-7.909-5.054-3.757-10.001-2.552-8.45-9.336-7.261-1.51-8.811.017-5.669 1.747-2.256-.796-2.166-5.939-10.8625-5.62-9.9681-3.29-4.6108-3.479-4.865-3.56-4.9882-3.528-4.0364-7.507-8.5735-11.708-10.4357-12.199-7.958-12.635-5.2097-12.856-2.2479-12.97.9188-12.865 4.1759-12.6341 7.5232-12.1669 10.805-3.3391 45.6239-9.5907 20.756 6.9818 61.056-5.3902 29.322-3.8806 31.406-2.3546 32.751-.886 33.735 27.2133 70.819 1.5998 4.16 32.1033 61.556 1.879 3.593 34.063 49.168 2.002 2.896 33.596 36.164 2.06 2.207 33.333 25.327 11.076 23.685 30.274 10.887 26.032 2.109 21.708-4.734 17.631-9.78 13.84-13.569 10.469-16.269 7.466-18.287 4.922-19.691-8.959-9.278-9.238-11.289-9.443-13.398-9.426-15.366 5.382-17.533-8.574-15.826-8.278-17.302-7.761-18.32-7.13-19.116-6.325-19.313-5.464-19.214-4.471-18.476-3.495-17.459-2.511-15.932-1.591-14.218-.731-12.2.017-10.165.648-8.04 1.157-6.046 1.575-4.127 1.854-2.453 2.806-1.264 1.46.624 2.273 1.345 2.297 2.117 2.289 2.749 1.551 2.19.672 1.058 1.945 2.224"/><path d="m430.982 538.909-.82-19.649-2.609-19.42-4.045-19.304-5.177-19.239-5.956-19.141-6.079-17.876-.345-1.01-2.346-.599-5.85-17.368-.402-1.189-.082-.247-5.858-16.884-.344-.993-2.42-6.817-3.397-9.607-.041-.123-1.813-1.814-1.485-4.372-3.553-10.477-1.821-6.194-1.395-4.71-.024-.065-.246-.624-1.682-4.315-1.649-3.741-1.534-3.085-.411-1.542.025-1.986.943-2.724.263-2.838.238-2.864-1.846-1.452-1.772-1.132-1.748-.057-1.919.188-.542-.385-.55-.583-.123-.377 1.559-1.165.008-1.313-.016-.853-.033-.82 1.723-1.329 1.813-.509-.041-1.698 1.895-1.297-.09-2.067-.139-1.986 1.993-1.952-.221-2.273 2.092-2.223 2.231-2.117-.369-2.904-.459-2.658 2.28-2.79-.615-2.715 2.355-3.019 2.486-2.855 2.592-2.65 2.699-2.281 2.782-1.822 2.83-1.091 2.863-.221 2.855 1.025 1.059 5.341.82 6.219 2.855 3.2.574 7.457 2.724 5.489.255 8.746 2.469 8.163-.123 10.009 2.051 11.215-.574 11.215 1.452 14.579-1.108 12.315.616 18.205-.214 21.601-.164 3.266"/><path d="m1 177.456 5.29171-18.829 5.18509-15.423 3.0847-9.165 9.1231-22.676 9.9435-20.6336 10.6737-18.2626 11.3628-15.7849 11.8961-13.0528 12.3884-10.2799 12.6837-7.3509 2.9535-3.2899 12.3147-13.71754 18.312-1.37825"/><path d="m297.992 754.442-8.295 16.031-1.436 2.346-1.96 3.2-23.407 38.133-1.534 2.067-2.749 3.692-29.231 39.216-8.77 9.534-32.637 35.491-10.001 8.417-41.275 34.737-6.686 4.094-56.0762 34.384-71.49144 27.546"/><path d="m138.305 13.1094-17.606-3.0027-11.822 8.9425-3.315 2.5106-10.8374 25.9826-4.8897 38.8716 1.887 48.635 8.7621 53.959-5.3656 29.248-3.7 31.569 21.1096 61.827 1.28 35.615 2.945 35.951 4.414 35.401 5.726 34.507 6.793 32.964 7.688 31.25 8.327 29.158 39.626 40.684 1.838 1.887 9.993 22.98 10.017 20.56 9.878 18.164 9.64 15.941 9.304 13.857 8.901 11.945 8.442 10.214 7.934 8.631 7.4 7.253 6.826 5.989 6.243 4.922 36.312-11.223 30.2-17.409 20.97-17.992 3.659-3.134 14.373-16.778 1.371-2.6.451-1.461 12.544-18.041 1.403-2.026 1.912-2.749 9.205-17.516 1.165-2.207 1.132-1.247.869-1.706 1.756-5.694 4.422-13.324 4.808-19.993.287-1.059 3.019-19.402.148-.952 2.125-3.29.599-19.387 1.362-3.166.845-3.167.32-3.077-.165-2.313-.557-5.866-1.009-9.435-.025-.205"/><path d="m343.092 406.271-3.413 17.262-4.57 17.016-6.104 16.039-7.909 14.529-10.132 12.093-12.593 8.951-15.4 4.611-18.32-.706"/><path d="m162.549 808.885-14.234 10.198-41.85 21.88-49.3646 16.401-56.1004 7.654"/><path d="m391.692 381.125 2.183 7.088 2.322 7.991 3.191 8.672.082.238 1.739 4.865 4.742 13.291"/><path d="m394.507 385.811.73 3.01 1.403 4.98 2.477 6.408 2.076 5.349.074.197.164.443 5.292 14.037 1.222 3.257 6.588 18.386 6.129 18.599 5.332 18.722 4.234 18.804 2.789 18.993-2.855 2.264-3.438 1.838-4.028 1.272-4.635.574-5.234-.296-5.842-1.32-6.424-2.511-6.99-3.88"/><path d="m224.114 125.605 5.489 8.877.361.583"/><path d="m209.034 928.272-2.06 1.977-3.847 4.102-16.286 16.368-23.349 23.595"/><path d="m329.701 730.895-6.3 14.793-5.341 10.403-19.157 37.337-1.797 3.503-6.284 10.108-4.316 6.932-22.602 36.378-7.802 10.157-4.619 6.005-29.47 38.33-9.049 9.271-5.956 6.096-37.362 38.272-4.636 3.536-12.749 9.747-7.384 5.644-40.512 30.963-15.3914 4.96"/><path d="m199.51 78.7512-3.61-5.0619-5.259-7.7038-8.048-5.2097-6.498 2.3792-4.217 9.4513-1.534 15.5306 1.411 20.0761 4.25 22.996 6.809 24.096-8.007 14.841 10.526 26.606-5.128 22.127 13.775 25.909 14.407 21.749-.148 28.009 15.727 16.926 2.872 29.945 4.627 31.504 6.252 31.931 7.785 31.767 9.042 30.544 10.107 28.903"/><path d="m1 62.835 9.8615-11.9535 2.5186-4.3154 14.4559-24.7193 3.5606-6.0958 10.6244-5.2999 3.1751-1.3537 13.1349-4.17591"/><path d="m255.011 412.088 15.202 1.658 13.168-2.65 11.19-6.195 9.46-8.639"/><path d="m44.9171 9.46651-13.5205 6.28439-13.5205 7.9909-13.49597 9.6892-3.38013 9.361"/><path d="m189.968 63.5328-4.119-3.9544-5.956-6.8588-9.008-2.3792-6.982 6.0301-4.282 13.7749-1.034 20.1249 2.322 24.7607 5.562 27.254 8.336 27.861-6.966 19.272 12.364 29.461-3.618 26.073 15.637 27.46 16.015 22.135 1.632 30.766 16.967 16.104 15.858 10.617 14.423 5.57 5.866 28.051 7.228 28.091 8.475 27.615 9.443 26.254 10.239 24.547 10.715 22.217 11.018 19.796 11.01 17.057 10.879 14.456 10.518 11.797 10.075 9.386 9.484 7.105 8.868 5.095 8.172 3.306 7.474 1.772 6.76.459 6.047-.615 5.34-1.493 4.66-2.182 3.988-2.708 3.347-3.085"/><path d="m204.301 102.633 10.263 10.469 9.55 12.503 1.14.459 4.71 9 2.805 4.931.23.665 1.149 3.806"/><path d="m223.499 151.08 5.612 13.077 6.555 13.111 7.252 12.56 7.696 11.765 7.909 10.69 7.95 9.624 7.826 8.524-2.19 7.211-1.6 9.788-.837 12.52.058 15.136 1.132 17.721 2.281 19.863 3.536 21.757 4.766 22.964 6.022 23.767 7.105 23.743 8.122 23.325 8.885 22.168 9.517 20.724 9.87 18.754 10.075 16.696 10.025 14.374 9.87 12.134 9.509 9.853 9.073 7.769 8.525 5.776 7.941 4.028 7.286 2.453 6.629 1.116 5.939-.041 5.284-.992 4.603-1.756"/><path d="m153.844 810.287-11.666 7.811-42.6455 20.363-50.1031 14.316-48.4294 4.406"/><path d="m157.512 27.6228-13.357-2.0839-10.961 9.3856-7.359 20.3546-2.765 29.6747 2.191 36.5082 7.072 40.119-7.277 23.989 13.766 44.697 16.958 41.267 18.854 35.532 19.518 28.936 19.165 21.766 18.147 15.153 16.614 8.918 14.907 3.815 13.094-.607 11.387-3.889 9.763-6.514 8.385-8.147 7.146-9.237 6.169-9.558-4.545-14.702 5.85-7.269-3.421-11.921-2.773-11.035-2.174-10.017-1.567-8.811-1.042-7.565-.542-6.235-6.596-3.339-7.105-3.675-7.646-4.299-8.172-5.12-8.688-6.284-9.131-7.663-9.484-9.369-9.673-11.182-9.64-13.176-9.345-14.965-8.68-16.597-7.662-17.582-6.236-17.893-4.487-17.081-2.445-15.203-.32-12.0104 1.788-7.7448 3.643-2.4695"/><path d="m168.899 37.7711-12.339-5.5132-10.51 4.9143-7.465 15.0219-3.602 23.9317.788 30.6922 5.135 34.917-8.573 19.846 11.264 40.693-4.774 27.992-3.028 31.299-1.173 33.621.722 35.418 2.535 36.107 25.384 42.424 2.051 3.437 25.499 32.612 2.092 2.666 8.458 33.719 9.492 31.595 10.305 29.264 10.788 26.459 29.954 14.169 11.396 20.403 11.272 17.566 10.953 14.759 10.534 12.232 9.985 9.862 9.418 7.794"/><path d="m182.813 155.304 8.713-10.279 9.132-6.022 9.262-1.969 9.164 1.567 8.861 4.693 7.9 6.776.526.451 3.24 7.827 7.458 7.245.033.024 6.981 9.115 3.34 5.407.467.697"/><path d="m248.513 282.002 11.592 6.662 10.756 4.143 9.837 2.026 8.975.583 8.131-.476 7.375-.984 6.687-1.198 6.087-1.067 5.53-.73 5.078-.221 4.66.385"/><path d="m257.118 357.604 12.93 1.583 11.396-1.796 10.009-4.152 8.696-5.956 7.606-6.891"/><path d="m118.525 20.0583 12.93 1.3619 12.7 4.1185 12.405 6.7193 11.921 9.1312 9.927 7.4084 1.354 1.0173"/><path d="m69.2508 2.60011-12.4048.44296-3.659 1.82962-7.9909 4.22509-4.9636 6.56332-13.4139 17.754-3.4047 4.5041-12.7001 46.1159-1.23065 4.4712-8.48315 16.1377"/><path d="m412.942 365.931-.903 12.151-1.329 12.782-1.723 13.25-1.025 6.432"/><path d="m263.625 229.364 8.483 8.278 8.155 7.056 7.753 6.095 7.31 5.292-.312 7.048.238 8.811.911 10.657 1.641 12.339 2.469 13.956 3.298 15.21 4.184 16.286"/><path d="m304.662 750.167-4.865 10.058-3.716 6.433-22.11 38.248-4.258 6.128-27.878 40.143-1.945 2.265-3.347 3.897-34.86 40.619-5.989 5.488-4.693 4.308-38.912 35.712-7.269 4.931-4.898 3.315-49.094 33.276-3.4047 1.534-55.3292 24.918-4.2005 1.89"/><path d="m274.298 230.431 7.589 7.588 7.285 6.728 6.941 6.071 6.555 5.513 6.17 5.144 5.792 4.849-.058 2.986 5.3 3.799.271.197.353 3.109.64 3.963.992 4.857 1.354 5.726 1.772 6.58 2.182 7.351 2.626 8.032 3.035 8.565 3.454 8.975 3.824 9.181 4.175 9.246-2.247 13.389-2.667 14.628 5.965 12.331 6.251 11.708 6.391 10.813 6.473 9.845 6.408 8.737 6.293 7.606 6.062 6.424 5.784 5.308 5.432 4.217 5.053 3.208 4.628 2.28 4.036 21.143 2.937 21.125 1.477 20.995-.369 20.814-2.56 20.609-5.169 20.289-8.146 19.789-11.544 18.861-.008.016-15.399 17.311-19.715 14.702-24.457 10.633"/><path d="m200.707 80.9419-.082-.1149-4.726-7.1376-5.259-7.7037-4.791-6.4076-5.956-6.8587-5.464-5.4312-5.948-5.8988-9.796.9927-7.368 10.2553-4.053 18.5661-.311 25.2689 3.585 29.6666-9.632 15.596 9.074 36.222-6.383 24.317 14.505 38.313 16.573 34.073-.041 32.406 1.878 34.532 3.758 35.475 5.546 35.795 7.089 34.982 26.343 25.105 24.063 15.555 21.339 7.556 10.813 26.5 11.322 23.94 11.503 20.986 11.502 18.14 11.248 15.202 10.895 12.503 10.362 9.936 9.788 7.662 9.114 5.587"/><path d="m145.025 811.838-8.385 5.235-43.3673 18.836-50.8907 12.348-41.382 1.903"/><path d="m406.747 407.896-.057-9.304 1.887-13.126 1.518-12.807-1.296-15.088.951-11.805-1.944-11.757.467-10.674-2.403-8.721-2.626-6.58-2.797-4.783-2.88-3.314-2.929-2.133-2.912-1.214-2.888-.501-2.814.025-2.732.418-2.618.689-2.51.903-2.379 1.058-2.256 1.198-2.133 1.345.09 2.544.033 2.633-.041 2.732-.082 2.781-.148 2.839-.181 2.839 1.912 1.772-.304 3.388-.352 3.38-.772 3.922.091 1.608"/><path d="m223.498 151.079-8.344 1.009-8.261 4.808-7.909 8.869-7.294 13.299-6.358 17.688 12.011 24.202 12.84 20.774 13.093 17.138-.475 24.785 13.947 12.799 2.149 26.778 3.799 28.805 5.382 29.806 6.932 30.249"/><path d="m295.325 256.085 6.859 4.759 6.407 4.34.123 4.963"/><path d="m263.625 229.364 2.847-7.457 3.273-4.8 3.553-2.338 3.692-.287 3.724 1.518 3.676 2.879 3.577 4.02"/><path d="m314.958 264.281 5.251 5.169 5.406 4.496.648-.09.452.287.927.164.59-.214.337.263.73.763.935.73 1.551.739.681.459 1.993 1.887 1.805-.853 1.658.139 1.903-.705 1.354-.501 1.575-.664.845.344.902 1.017.985 1.543.377 2.313.624 2.741.902 3.068.73 3.585 2.191 3.307 3.003 3.101 2.592 3.536 1.37 4.693-.746.541-.115.197.336.386.14.188-.287.886.566 2.166 1.222 1.797 1.247 1.846.09 5.464.329 8.024.566 10.575.795 13.012 3.463 5.39 3.445 5.029 3.389 4.635 2.978 17.525 3.093 19.239 4.537 4.971 4.307 4.201.107.549 4.118 20.248 3.84 21.43 3.15 21.716 5.522 2.962 2.543 21.47 1.075 21.282-.747 21.011-2.97 20.617-5.571 20.109-8.589 19.313-12.011 18.073-15.9 16.072"/><path d="m187.794 72.6306-4.021 5.7266-1.739 11.3628.739 15.859 3.24 18.902 5.513 20.544 7.458 20.74 8.934 19.92 9.952 18.147 10.526 15.99 10.707 13.472 10.583 11.083 10.239 8.746 9.747 6.826 9.147 5.136 8.533 3.913 7.9 2.946 7.294 2.395 6.711 2.043 6.186 1.969 5.694 2.027 5.267 2.231.927 3.708 1.23 4.422 1.559 5.112 1.904 5.767 2.239 6.334 2.593 6.834-3.758 6.703-4.151 7.917-4.693 8.828-5.324 9.467 5.209 14.965-5.562 11.781-6.637 11.363-7.909 10.452 7.654 21.126-8.992 10.838-10.944 8.237-13.061 4.898-15.424.344-17.762-5.087-20.068-11.896-21.946-19.493-23.218-28.157-1.993-3.134-21.422-33.662-1.903-3.856-20.33-41.234-19.362-51.35-14.776-54.829 6.917-26.13 8.335-22.701 9.525-18.714 10.51-14.644 11.182-10.346 11.634-6.2023 11.756-2.1331 11.691 1.5834 11.371 4.9882 10.895 7.9248.066 8.664 7.4 5.431 2.781 2.043 4.562 4.759 5.013 5.226 1.271 6.087 8.032 8.828 1.387.943 6.571 9.944.87 1.288 1.994 4.036 2.543 3.799"/><path d="m308.715 270.147 6.112 3.142.615 5.062 1.026 6.129 1.485 7.211 1.961 8.213 2.494 9.131 3.002 9.878 3.536 10.493 4.012 10.854 4.48 11.051 4.865 10.969 5.201 10.74 5.432 10.247 5.603 9.648 5.661 8.861 5.661 8.023 5.554 7.08 5.398 6.145 5.161 5.177 4.881 4.266 4.545 3.381 4.193 2.576 3.807 1.837.131.509 5.029 20.076.131.607 4.266 20.125 3.29 20.715 1.814 20.65-.009 20.577-2.215 20.51-4.766 20.412-7.729 20.166-11.092 19.6-14.907 18.402-19.181 16.269"/><path d="m326.133 273.806.394.493 3.486 4.2.132.402-.32.73.672-.024 2.363 2.174 1.493 1.747.575.977-.066.525.738.59.813.066 2.428 2.822.123.821 1.428 1.526.828.828.156.091.246.262.493.574"/><path d="m323.236 269.622.411.443.484.542.582.763.14.189.041.041.196.008.411.394.59.902.821 1.272.402.73.861.993.903.18 1.969 2.437-.271.82.287.419.271.344.861.665 2.462 1.862 2.428 2.215.09.123-.369.771-.418 1.773 3.683 3.289 1.116.878.213.14.649.156.598.115.042.057.336.041h.295l2.437 3.659.164.566"/><path d="m385.523 314.081-.452 6.358-.615 6.465 2.478 3.257 2.486 3.913 2.51 4.644 2.445 5.644 2.387 6.769 2.199 8.229-1.665 10.862-1.945 10.887-.328 1.641"/><path d="m340.277 309.438 2.437 5.611 2.675 5.866 2.904 6.03 3.085 6.088 3.248 6.046 3.356 5.907.246 14.153.23 16.08.082 17.696-.295 18.845-.895 19.584-1.837 19.772 8.023 11.617-2.363 20.338 8.615 10.65 8.319 8.786-2.74 20.732 8.516 7.31 8.032 5.522 7.457 3.856 6.867 2.412 6.219 1.124 5.595.057 4.939-.861 4.307-1.584 3.684-2.166"/><path d="m380.904 352.321 1.009-6.014.952-6.415.862-6.506.73-6.482-2.404-2.789-2.338-2.363-2.248-2.043.328-4.512.246-4.463.14-4.34.049-4.225-.066-4.045-.172-3.84-.287-3.593 2.502-1.879 2.609-1.714 2.732-1.461 2.814-1.107 2.896-.591 2.945.09 2.954 1.017 2.929 2.183 2.863 3.7.287 8.204.008 8.902-.287 9.492-.566 9.984-.869 10.379-1.133 10.632 2.15 9.206-1.584 11.502 1.625 11.88-2.092 12.24-.156.755"/><path d="m339.145 723.315-2.298 5.53-6.522 13.939-2.371 4.635-1.592 2.995-3.265 6.276-3.971 7.507-3.413 7.818-6.071 13.488-7.621 13.57-5.235 8.319-3.191 5.086-9.148 13.094-9.952 12.692-10.591 12.085-11.347 11.428-11.879 10.559-12.561 9.64-12.938 8.557-13.496 7.425-13.709 6.194-14.103 4.898-14.128 3.626-14.333 2.256-14.168 1.026-14.169-.312-13.832-1.403-13.6438-2.625-13.1595-3.511-12.7904-4.529-12.2078-5.161-11.691-5.939-11.0511-6.309-10.4193-6.81-9.75484-6.957-7.523262-.123"/><path d="m327.133 274.102.287.369 1.132.418 1.017.132.058.049.484.303 1.067.591-.009 1.017-.254 1.42-.222 1.091 3.61 4.094.419-.025.008.386.837 1.468.353.427.484.558 1 .919.952 1.107.14.337"/><path d="m274.298 230.431 2.617-4.734 2.921-2.592 3.093-.64 3.167.927 3.175 2.264 3.125 3.224.944 1.764 1.485 1.961 1.214 1.19 1.14 1.436 2.076 2.617"/><path d="m334.173 727.277-2.576 4.742-8.196 13.669-8.894 13.258-9.352 12.618-9.985 11.978-10.337 11.108-10.863 10.256-11.075 9.246-11.462 8.237-11.518 7.146-11.765 6.063-11.65 4.988-11.724 3.897-11.461 2.92-11.371 1.904-10.977 1.091-.837.599-42.153 30.355-51.5393 26.754-61.5398 19.264-13.8979 1.509"/><path d="m136.419 813.339-4.644 2.716-44.1468 17.368-51.5716 10.395-35.0566.106"/><path d="m74.403 792.32.2626 5.226-.0575 4.439-.484 3.692-.722 3.019-1.0009 2.477-1.124 1.92-1.247 1.575-1.2224 1.133-1.1732.992-1.0256.689-60.44856-10.222-5.160441-2.15"/><path d="m312.497 745.244-3.043 3.889-9.657 11.092-10.099 10.247-10.223 9.263-10.534 8.303-10.509 7.277-10.674 6.268-10.501 5.3-10.51 4.307-10.198 3.454-10.058 2.559-9.632 1.863-9.345 1.124-8.836.599-8.417.049-39.347 26.754-46.8546 22.594-55.362 15.982-27.6974 2.412"/><path d="m357.137 295.087 1.23 4.349 1.034 4.824"/><path d="m365.243 295.506-1.452 4.242-1.206 4.693-.96 5.258-.304 2.142"/><path d="m1 36.2949 3.38013-2.8632 4.04468-4.1104 12.92159-13.1431 7.8104-7.93341 4.5616-1.09123 5.3491-1.66538 4.0119-1.24705 3.495.22153"/><path d="m372.626 274.168-1.395 4.52 1.305 2.133.755 1.813.656 2.109-2.084 3.191.501 2.076.418 2.289.328 2.51.255 2.699.164 2.872.09 3.019v3.151l-.058 3.24-.139 3.323-.189 3.355-.254 3.397 2.002 2.043 2.067 2.354 2.158 2.65 2.223 3.036 2.297 3.437 2.33 3.996 2.371 4.594 2.339 5.423 2.313 6.35 2.174 7.565 2.043 8.909 1.748 10.625 1.444 12.503.073 1.239"/><path d="m333.188 728.073-1.592 3.946-.861 1.781-7.228 14.931-17.024 35.155-2.904 4.931-7.884 13.406-21.2 36.041-3.823 5.283-9.394 12.979-27.082 37.453-4.365 4.766-11.116 12.151-35.196 38.445-5.522 4.569-19.813 16.409-37.813 31.311-16.006 6.74-9.5584 4.96"/><path d="m382.364 282.905.451 4.192.312 4.553.164 4.882.025 5.152-.123 5.39-.246 5.563-.394 5.71 2.519 2.092 2.559 2.584 2.634 3.159 2.617 3.946 2.609 4.865 2.51 6.071 2.388 7.458-1.428 10.838 1.994 9.869-1.912 11.618-1.394 7.539"/><path d="m350.294 294.284 1.871 3.774 2.633 3.593 2.314 4.061.517 1.346.155.812.427.468.263.041.311.361.246.148.058.065.024.074.124.049.18.255"/><path d="m333.222 291.125 1.37 3.832 1.616 4.364 1.903 4.849 2.166 5.267-3.421 5.349 2.913 7.204 3.232 7.457 3.495 7.565-1.944 11.879 4.438 9.099 4.668 8.844 4.8 8.385 4.898 7.859 4.889 7.195 4.833 6.49 4.709 5.735 3.027 20.526 2.667 21.348 2.01 21.79.976 21.832 6.965 5.357 6.49 3.971 5.989 2.724 5.439 1.608 4.898.639 4.324-.18 3.774-.861 3.208-1.412 2.674-1.837 2.125-2.15 1.625-2.363-4.48-17.852-5.546-17.688-5.858-18.066 1.026-1.674.197-1.222-7.089-15.924-.689-1.838.09-.648-.763-.845-.615-.542-.336-.771"/><path d="m348.539 290.781 1.083 3.823 1.739 3.905 2.798 3.561 1.854 3.372-.008.385.066.132.82-.082.911 1.944-1.814.427"/><path d="m354.101 287.876 1.197 3.602 1.846 3.626 1.74 4.078.525 5.086.451 5.202"/><path d="m366.727 299.313-1.616 3.495.197.928-1.567 3.486-1.633 3.38-.566 1.567"/><path d="m343.648 297.877-3.577.197-3.864 1.247-4.184 2.297-4.586 3.274-5.029 4.143-5.595 4.775-6.227 5.176-7.015 5.12-7.893 4.701-8.934 3.602-10.066 2.018-11.33-.419-12.594-3.421-13.857-7.359-14.931-11.757-1.165-27.82-14.415-17.114 1.796-24.81 3.249-20.937 4.439-16.958 5.365-12.757 6.022-8.803 6.408-5.005 6.563-1.665 6.539 1.312 6.35 3.733 6.071 5.784 4.898 6.219.812 1.034 3.667 6.448 4.02 5.899 1.133.427.032.049 3.84 5.357 3.413 5.062"/><path d="m377.901 258.694-2.067 2.896-1.969 3.364-1.846 3.618"/><path d="m351.13 285.62.55 3.593 1.206 3.651 1.025 4.135 1.083 4.521 2.412 3.897 1.149 2.059.188 1.124.025.074"/><path d="m338.694 294.907 1.379 3.167 1.583 3.553 1.797 3.913 1.985 4.209 2.191 4.455 2.346 4.635 2.511 4.726 2.625 4.766 2.732 4.718 2.781 4.619 2.822 4.446 2.814 4.226 2.782 3.97.041.247 2.633 15.177 3.298 4.201.074.353 3.503 17.606.091.468 3.642 19.107 3.651 20.732 3.29 21.479 2.601 21.823 1.567 21.848.139 21.585"/><path d="m382.364 282.904 2.699-1.911 2.798-1.559 2.872-1.066 2.92-.37 2.937.525 2.929 1.748.566 6.957.32 7.704.041 8.319-.205 8.869-.492 9.328-.738 9.664-1.01 9.952-1.238 10.067-1.51 10.181-1.69 10.108-1.116 5.784"/><path d="m412.277 461.584 3.266.115 2.789-.402 2.33-.82 1.862-1.141 1.428-1.386.976-1.551.575-1.649.147-1.665-.23-1.666"/><path d="m373.02 345.987 1.903 2.486 1.789 2.256 1.649 2.051 1.509 1.846 1.346 1.649 1.493 1.083 1.985 3.331.107.238.148.32.27.508.082.435 2.199 4.956.689.976.501 1.69 1.173 2.65 1.099 2.428 1.297 3.282 2.691 5.16 1.017 2.265 1.583 3.298.681 1.452 2.158 4.832 2.502 4.956 1.173 2.469 1.461 2.757-.099.369 1.329 2.83 1.124 2.511.886 2.724.558 2.141.845 2.913.263.615 1.304 3.068 7.113 16.253 6.654 15.965 5.62 16.745-.574 2.1-1.05 2.043-1.502 1.887-2.002 1.674-2.486 1.337-3.01.927-3.504.377-4.036-.262-4.545-1.05-5.046-1.953-3.618-21.47-4.225-20.642-.123-.615-4.611-20.191-.123-.509-4.734-19.37-.098-.394-4.586-18.09-.074-.303-4.275-16.409-.049-.18-3.774-14.194zm0 0-2.018-2.691-2.823-11.461-.008-.041-1.862-8.229-.813-3.692-.057-.525-.008-.107.041-.394.098-1.353-1.6-.886-.418-.575.164-.713.369-.854.033-.894-.722-.853.739-1.337 1.698.016 1.772.451 1.846.14 1.944.426 2.027.698 2.141.919 2.232 1.165 2.338 1.411 2.42 1.739-.5 5.768-.624 5.833-.714 5.8-.82 5.776-.886 5.677-.115.698v.041l.115 1.435 2.223 5.177 1.477 2.798-.304.394.575 1.649 1.78 5.201 2.379 4.184 2.281 4.636 2.658 5.685 2.74 4.964 1.149 1.534 1.616 3.117.771 1.691 1.904 4.249.18.977-.008 1.411.804 2.814.796 3.158.656 2.921.263.681 3.856 9.779.164.411 2.592 6.596 6.72 17.86 6.243 18.074 5.472 18.189 4.357 18.328 2.97 18.575-2.306 2.567 1.05 19.321-3.084 2.593-1.289 20.018-3.97 2.355-4.062 20.494-.328.976-6.604 19.748-.492 1.001-9.706 19.731-.656.968-1.182 1.706-12.06 17.582-.82.861-17.262 18.107-6.842-1.181-7.548-2.396-23.932 12.725-29.108 7.277-9.246-8.647-34.868-3.988-1.502-.582-38.453-14.891-1.534-1.042-42.662-28.92-1.526-1.534-45.172-45.418-1.452-2.035-44.8773-62.844-1.3373-2.576-40.7503-78.564-1.1076-3.035-32.40661-89.123 1.44394-31.643-8.671848-46.346"/><path d="m390.496 257.381 1.632 2.601 1.428 3.487 1.231 4.217 1.017 5.062.787 5.776.567 6.522.32 7.154.09 7.737-.164 8.237-.394 8.639-.656 8.991-.862 9.189-1.116 9.369-1.296 9.386-1.526 9.41-1.583 8.754"/><path d="m406.805 441.435 2.986.607 2.584.115 2.158-.279 1.748-.615 1.337-.862.952-1.042"/><path d="m310.709 746.369-1.255 2.764-3.659 6.761-20.962 38.756-4.619 7.072-26.418 40.431-2.239 2.814-3.036 3.807-33.342 41.759-2.445 2.42-4.044 4.004-40.825 40.397-.853.845-7.343 5.489-5.587 4.184-46.493 34.761-14.6936 7.524-39.536 20.223-5.7676 2.95"/><path d="m386.163 256.315-2.478 1.698-2.42 2.47-2.322 2.945-2.223 3.355-2.109 3.586-2.551 3.281-2.289 3.487-2.068 3.799-1.386 4.258-.583 4.955-.976 4.726-1.346 4.446-1.091 4.874-.837 5.398.304 1.985.23.468-.337.336"/><path d="m378.065 256.282-2.01 2.215-1.936 2.872-2.551 3.068-.927.205-.804 3.52-1.51 3.798-1.977 3.897-1.723 4.152-1.912 4.34-.656 4.479-.517 4.71-1.124 5.111-1.017.295-.525.23-.509.246"/><path d="m349.179 302.119-2.781.993-2.946 2.428-3.175 3.897"/><path d="m334.764 278.302.853.263 1.534.237.812.123.895 1.658.59 2.256 1.477 2.691 2.182 3.052 2.256 3.306"/><path d="m343.649 297.877 1.305 2.47 1.444 2.765 1.608 3.011 1.739 3.232 1.879 3.397 1.985 3.528 2.084 3.593 2.158 3.626 2.207 3.594 2.231 3.527 2.24 3.405 2.207 3.274.025.123 2.28 12.889 2.708 3.675.041.222 3.224 15.727 3.159 3.758.074.311 4.077 17.935.098.443 4.209 19.288 4.037 3.478 3.733 2.773 3.421 2.142.115.426 5.464 19.772 3.404 1.174.132.476 5.341 19.673.131.558"/><path d="m390.494 257.381-2.625.714-2.593 1.715-2.518 2.363-2.445 2.912-2.33 3.241-2.223 3.519-2.101 3.668-2.428 3.175-2.617 2.978-2.298 3.528-1.583 4.176-1.042 4.618-.894 4.866-.911 5.094-.623 5.538-.123 2.092.09.14"/><path d="m386.163 256.315 1.707 1.78 1.534 2.568 1.353 3.233 1.165 4.012.969 4.684.763 5.407.549 6.03.328 6.629.107 7.146-.107 7.597-.336 7.983-.541 8.253-.772 8.491-.951 8.59-1.165 8.68-1.313 8.631-1.51 8.574-.402 2.108"/><path d="m435.617 483.612.435 2.691.574 2.379 2.371 11.921.017.197.221 2.256v.049l-.238 2.823-.705 2.871 1.542 18.369-.394 19.165-.156 1.206-1.747 13.283-.747 5.686-.352 1.411-.952 1.952-.812 1.28-3.717 16.614-1.083 3.462-.106 2.043-3.159 10.28-1.313 3.265-1.895 3.298-1.805 3.158-6.727 15.712-.64 1.361-.025.033-2.141 3.142-3.807 7.089-1.87 3.216-3.085 5.587-1.633 2.527-2.248 2.494-2.855 2.371-1.378 2.232-.476 1.714-11.494 16.064-3.388 3.676-1.141 1.033-15.366 17.795-1.075 1.608-9.435 9.246-10.723 10.748-1.911 1.001-2.421-.419-.205.115-5.201 3.044-3.151 1.846-3.429 2.01-21.241 12.413-3.757-1.871-40.611 10.354-5.16-5.054-5.719-5.964-6.317-7.056-6.842-8.22-7.359-9.566-7.819-11.011-8.237-12.618-8.606-14.341-8.902-16.227-9.115-18.222-9.229-20.322-9.238-22.529-9.099-24.752-8.819-27.033-1.772-2.485-39.873-56.027-6.071-32.119-5.0948-33.4-3.9791-34.49-2.6663-34.983-1.2225-35.155.3692-34.523 2.0264-33.49-14.8085-64.042 6.8833-26.918-4.2744-54.894 10.6162-17.5573 11.4125-14.0127 12.093-10.4193 12.495-6.7029 12.749-3.0848 12.733.4431 12.585 3.7328 12.192 6.7849 11.699 9.4759 11.043 11.8633 10.321 13.8158 3.511 4.5202.812 1.042"/><path d="m349.178 302.119 1.255 2.026 1.362 2.199 1.452 2.363 1.534 2.478 1.6 2.576 1.657 2.633 1.69 2.675 1.715 2.658 1.715 2.625 1.706 2.568.008.058 1.863 10.321 2.166 3.093.032.139 2.815 13.455 2.617 3.364.049.221 3.757 16.121 3.003 3.299 2.806 2.863 2.601 2.428.18.624 5.358 17.696.27.936 5.431 18.525 3.069 1.558.336 1.124 5.579 18.69"/><path d="m377.893 255.371-2.15 1.141-1.837.861-1.215.607-1.239.706-1.969 1.624-1.394 1.83-.977 3.413-1.222 3.191-1.674.656-1.706.755-1.731.927-.575 3.06-1.567.837.411 2.929.951 3.142.731 3.7-.329 4.381-1.214 4.997-.566 5.168.607 5.054.837 5.235-.156.213"/><path d="m368.466 262.698-2.519.689-2.166 1.313-.952 2.067-.32 3.388-.763 3.266-1.542.722.222 3.125.771 3.348-.468 4.135-.328 4.381.148 4.553"/><path d="m362.658 313.227 1.477-.976 1.698-.853-.008-1.961-.041-1.255 1.797-1.575-.082-1.641-.132-1.551 1.879-2.158-.205-1.862 1.977-2.363-.303-2.116 2.067-2.618 2.191-2.51 2.338-2.42 2.461-2.314 2.593-2.149-.607-3.791 2.658-2.305 2.756-1.969 2.831-1.452 2.888-.796 2.912.156 2.896 1.304 2.839 2.847 3.462 4.882 1.838 6.653.828 7.335.928 1.846 1.206 4.463.18 1.165 1.026 6.596.065.468.763 8.064.148 1.74.402 6.67-.107 10.878 1.387 16.721.41 9.771-.583 1.501-.049 21.799-.779 11.879-2.166 13.135-.402 2.749"/><path d="m369.476 305.31 2.01-1.042 2.133-.869 2.239-.689 2.371-.542 2.478-.353 2.609-.131 2.699.18 2.79.575 2.838 1.124 2.888 1.837 2.872 2.773 2.838 3.947 2.716 5.406 2.56 7.187-.689 10.633-.977 11.026-1.312 11.355 1.862 11.174-1.821 12.208 1.222 14.111-.837 4.512"/><path d="m388.698 255.462-1.986-1.059-2.264.123-2.511 2.371-2.28 2.396-2.216 3.003-2.092 3.347-1.993 3.667-2.462 3.479-2.773 3.462-2.42 3.873-1.559 4.225-.147 4.766 1.419.722.64.624.591.787-1.904 3.692-1.526 4.201.394.369.361.468.328.566.304.664-1.337 4.349-1.838 5.16-.492.574.106.148.066.09"/><path d="m353.74 273.142-1.994.492-1.977 1.1.607 2.322.533 2.207-.024 3.019-1.937.968-1.247.549-1.214.509-1.181.402-1.149.345"/><path d="m369.475 305.311.041 2.165-.008 2.232-.058 2.281-.09 2.313-.139 2.339-.164 2.33-.205 2.338 1.714 2.486 1.756 2.838 1.813 3.167 1.871 3.528 1.928 3.88 1.96 4.316 2.019 4.783 2.018 5.382 2.043 6.03 1.969 6.883 1.559 6.326"/><path d="m367.621 308.305 1.895-.829 2.002-.574 2.1-.353 2.232-.18 2.33.024 2.461.206 2.552.475 2.658.788 2.732 1.231 2.797 1.772 2.815 2.518 2.814 3.43 2.74 4.635 2.642 6.063 2.436 7.835 2.182 9.894-1.148 11.683-1.46 11.978 1.411 13.545-2.01 12.774.238 6.818"/><path d="m380.075 256.274 1.863.623 1.747 1.116 1.592 1.797 1.444 2.387 1.271 3.101 1.1 3.7.91 4.39.73 4.98.526 5.57.328 6.088.139 6.563-.082 6.974-.262 7.302-.476 7.572-.64 7.745-.845 7.892-.993 7.901-1.165 7.925-1.288 7.819-.747 3.979"/><path d="m332.803 276.35 1.887.5 1.755.451 1.871.058 1.936-.197 1.132.738 1.789 2.068 2.313-.714 1.592-.615 1.641-.763 1.657-.821 1.698-.943 1.715-.96 1.748-1.042 1.739-1.017.328-2.339"/><path d="m362.634 313.72 1.493-.591 1.641.96-.099 2.043 1.666 1.222 1.723 1.616 1.772 1.986 1.846 2.297 1.903 2.617 1.986 2.929 2.042 3.29 2.109 3.659 2.149 4.143 2.207 4.66 2.191 5.349 2.19 6.129 2.101 7.129 2.01 8.262 1.788 9.689.46 3.339"/><path d="m300.354 244.033-1.649.927-1.435 2.182-1.157 3.676-.788 5.267"/><path d="m377.901 258.694 1.756.599 1.608 1.19 1.493 1.69 1.338 2.314 1.189 2.855 1.026 3.478.861 4.02.689 4.595.501 5.094.336 5.571.14 5.989-.033 6.35-.222 6.654-.385 6.867-.566 7.064-.698 7.137-.878 7.22-.984 7.17-1.141 7.138-.91 5.234"/><path d="m342.778 278.212 1.272-1.009 1.501-1.173 2.273-.337 2.125-.394 1.797-1.665-.156-1.28"/><path d="m367.621 308.305.008 1.756-.024 1.788-.066 1.822-.09 1.837-.115 1.846-.14 1.838-.164 1.821 1.132 2.601.279 1.739-.008.164-.164.599.287.402 1.461 2.133.008.041v.05"/><path d="m319.061 264.175 1.132 1.255.927 2.043.558.861 4.044 4.611.575.509.205.492.18.312.878.91 1.116.049 1.28-.016 1.222.763 1.649.738.361.296 1.543.574 1.714-.271 1.559.337 1.444 1.124 1.936-.862 1.395.312.394 1.756-.009 2.412.444 2.797 1.796 2.896 1.895 3.216 1.978 3.487 2.896 3.274 3.06 3.306 2.839 3.7 1.435 4.225.23.148.213.345.32-.033 1.083.886.263 1.649.016.024.041.124.066.114.09.058.016.131-.008.181.222.279.221.123-.156.295.353.722.296.328.541.862.755-.599 1.698-.829 1.772-.418 1.822.631 1.887.952 1.985 1.214 2.067 1.493 2.166 1.748-.418 4.553-.484 4.537-.558 4.529-1.239 4.348-.246 2.248 2.018 6.662 1.912 4.209 1.419 3.831 2.396 6.645 1.567 5.965-.402.508.074.214 5.439 16.367.295.911 5.612 17.22.254.821 5.784 18.345 2.716 1.05.689 2.141 5.497 17.229.131.443 5.62 19.214 4.955 19.764 3.848 19.789 2.379 19.846.575 19.977-1.576 20.207"/><path d="m363.954 316.952.082.139.279.329.254.172.279.574.583 1.198.082.164.107.213 1.329 2.979 1.214.894 2.092 2.994 1.674 3.356-.304 2.322.295.681 1.354 3.306 1.805 3.848 1.641 2.108.23 1.477-.009.09.091.304.918 2.075.173.23.828 1.14 1.116 2.79.107.32.074.213"/><path d="m367.367 303.415-.164-1.477 1.838-2.543-.254-1.739 1.928-2.741-.361-1.944 2.01-2.962 2.149-2.879-.566-2.388 2.232-3.117-.739-2.38 2.289-3.289 2.404-3.143 2.527-2.896 2.625-2.576 2.708-2.043 2.764-1.403 2.798-.426 2.798.689 2.756 2.281"/><path d="m353.904 297.008.615-.386.64-.377.648-.394.993-.574-.665-4.266-1.041-3.676-1.083-3.282-.468-3.199 2.74-1.51.788-3.519 1.567-.845.402-2.937 1.739-.96.697-2.708 1.912-1.058 1.887-1.001 1.838-.763 1.796-.615 1.51-2.962 1.895-.509 1.805-.098 1.715.221 1.608.706 1.501 1.132 1.37 1.657 1.247 2.142 1.1 2.691.951 3.183.804 3.708.649 4.184.484 4.644.311 5.062.164 5.415-.008 5.751-.164 5.997-.328 6.219 2.675 1.879 2.707 2.477 2.748 3.2 2.7 4.168 2.658 5.308 2.51 6.777 2.33 8.483 2.01 10.55 1.633 12.905 1.083 15.638.41 18.648-.189 8.261"/><path d="m320.554 268.547.664-.459.665.287.533.451.484.624 3.126 3.265.952.55.557.525.296-.09.213.18.279.509.115.828.517 1.165.919 1.182.869 1.14-.27.599 1.542 1.223 1.731-.337 2.207-.763 1.551 1.075.771 2.248 1.641 2.748.057.091 2.273 3.068 3.125 3.208 2.938 3.331 2.051 3.831.877 2.338 1.001 1.034.87.353.64-.41.402-.255 1.083-.73-1.321-4.356-2.535-3.29-1.534-3.544-.353-3.725.098-3.503 1.945-.985 2.01-1.099.41-3.266-.164-2.436-.049-2.01.024-1.395.132-.845 1.846-.812 1.567.106 2.231-.615.099-2.141 1.288-1.378 1.042-.238 1.813-1.124 1.682-1.658 2.625-.902 2.33-.164 1.624-2.56 1.543-1.099.279-.903 2.1-.754 2.1-.378.222-.689 1.878-.878 2.134-.271 2.289-.516 2.321.418 2.01.763 1.576 2.273 2.65.377 2.149 2.404 2.248 2.404 1.567 3.872 2.675 4.02 1.378 5.087.574 1.476 1.264 4.759.114 6.768 2.552 7.22.525 8.368.205 9.189 2.15 10.731 1.731 13.603-.345 10.985 1.559 17.007.345 9.345-.558 24.367-.895 12.068-.541 7.613"/><path d="m360.254 309.617-.361.091-.213-.107-.025-.123-.14-.164-.402-.271-.082-.156-.475-1.411-.501-2.42.665-.427.344-.188.337-.181.352-.156.345-.131.336-.098.345-.066.328-.025.32.025.312.074.295.131.287.181.263.246.246.311-1.534 4.931-.698-.189-.172.058-.394.18-.336-.024-.189-.23-.517-.148-.008-.434-.197-.156-.172-.05-.402-.344-.23-.41-.049-.074-.254-.099-.394-.451-.427-.459-.393-.452-.017-.196-.221-.329-.804-.59-.337-.452-.254-.205-.46-.287-.927-.861-.517-.468-.106-.09-.632-.599-.197-.189-.828-.623-.263-.222-.656-.738-.64-.648.147-.493.846-.5.5-.263.525-.278.542-.312.557-.328.583-.361 1.222-.747-.853-4.217-1.994-3.191-2.19-2.773-1.789-2.642-1.837-2.232-2.043.665-1.305.295-1.279.197-1.231.082-1.198-.041-1.165-.156-1.124-.279-1.099-.385-1.059-.517-1.288.008-1.304-1.362-.911-1.181-.648-.017-.304.279.714.722 1.518 1.108.878 1.255 1.231 1.428.59.336.46.066.91.352-.336.476.763.583 1.354-.328.951.221.977.123 1.009.033 1.042-.066 1.641-.287 1.796 2.896.722 3.594 1.567 3.749 2.913 3.479 2.568 3.815-.173.779 1.009 1.132.928.164.27.279.197-.016.255.287-.23.156-1.239-.657.066-.713-.025-.025-.681-.509-.87-.205-2.248.763-2.428 1.977-2.568 3.627-2.724 5.3-2.945 6.94-3.216 8.475-3.594 9.796-4.077 10.887-4.742 11.519 5.841 14.997 6.342 14.604-4.168 15.67-5.324 15.309-6.736 14.439-8.516 12.708-10.542 10.338-12.905 6.883-15.441 2.601-18.147-3.052-20.749-9.697-23.136-17.845-24.842-26.754-2.067-2.945-23.538-33.58-1.978-3.634-22.889-42.104-22.349-53.762-17.8765-58.587-11.6253-59.39 8.2288-23.817 9.484-20.51 10.501-16.7203 11.363-12.8642 11.913-8.8277 12.281-4.9225 12.356-1.0584 12.257 2.4613 11.896 5.7511 11.42 8.6062 10.773 11.125 10.411 12.6675 1.427 1.649.862 1.394 5.291 10.198"/><path d="m100.607 815.662-17.2368 3.38-15.9407 3.134-55.8461-.279-10.5834-2.363"/><path d="m294.727 810.895-2.133 3.462-7.433 11.059-4.8 6.801-1.673 3.266-22.619 34.909-.739.918-5.505 6.728-8.91 10.337-12.027 13.414-32.169 37.436-6.202 5.513-13.348 11.863-7.245 6.441-34.383 30.552-7.704 4.882-15.629 9.904-7.811 4.95"/><path d="m94.2572 815.99-17.7293 2.567-11.1741.903-58.92262-7.564-5.43118-1.92"/><path d="m91.1314 816.211-18.2954 1.616-4.9963.681-2.609.616-58.1924-5.013-6.0383-1.928"/><path d="m96.8333 815.85-18.1395 3.134-12.8888 1.674-4.2005-.722-53.51607-3.339-7.08843-2.06"/><path d="m136.394 813.348-2.912.541-4.266.796-1.707.41-.312.115"/><path d="m66.1906 821.15-5.9973-.222-50.63631-1.87-8.55699-2.174"/><path d="m200.715 800.041-2.379 1.559-1.904 2.469-12.454 11.732-5.3 4.988-.451.337-38.043 27.976-45.9104 24.801-54.5251 18.575-38.7485 5.562"/><path d="m254.551 779.16-2.765 1.42-2.765 1.419-10.255 5.242-2.223 1.141-.714.369"/><path d="m249.021 781.999-.566.73-.402.534-2.108 2.765-.066.082-7.441 9.763-7.786 10.206-3.905 5.111-1.026 1.116-1.329 1.444-2.1 2.272-28.977 31.381-3.06 2.617-1.978 1.699-35.762 30.626-1.444.935-47.83 30.963-59.4315 25.876-42.8095 9.812"/><path d="m1 60.5054 14.2917-31.1432 2.5844-5.6198 6.0547-4.5123 9.6399-7.1869 9.5333-7.1049 3.4704-.47581 10.2716-1.41941"/><path d="m316.247 742.242-.492.96-.033.057-.837 1.657-19.715 38.626-4.586 7.49-25.113 41.062-5.71 7.63-3.725 4.98-27.919 37.272-2.797 2.986-3.733 3.988-34.893 37.279-5.045 5.382-13.119 10.682-44.696 36.386-3.84 2.215-5.144 2.97-38.8714 22.416-12.2325 7.05"/><path d="m203.349 934.237-4.972 5.316-22.217 23.784"/><path d="m123.374 815.235-2.338-.025-51.0058-.541-62.7786-15.818-6.251601-3.208"/><path d="m146.929 986.629-3.635 2.904-5.382 4.562-3.011 2.707-13.258 11.108-7.564 5.42"/><path d="m300.355 752.284-2.043 1.534-6.145 3.725-7.695 4.069-6.473 4.529-2.749 2.215-2.756 1.624-4.948 2.027-7.769 3.183-8.089 3.306-14.686 6.014-2.338.361-46.444 7.22-20.305-2.191-35.681-3.847-.459-.05-28.378-10.928-34.5318-13.307-.1969-.074-36.0575-25.162-31.37288-21.897-.20511-.14-.032813-.041"/><path d="m255.618 871.015-3.2 4.373-.5.558-10.937 14.119-20.412 26.565"/><path d="m326.986 731.388-3.914 2.756-4.2 2.954-8.779 6.178-8.163 3.552-5.784 2.511-24.325 10.591-45.296 7.852"/><path d="m321.227 738-3.897 8.139-12.175 25.425-1.879 3.257-3.069 5.316-23.669 41.021-5.718 8.163-4.242 6.047-25.9 36.968-7.064 8.073-4.488 5.136-33.465 38.231-13.881 12.29-42.039 37.215-9.73 6.21-33.1859 21.179-19.8378 12.66"/><path d="m107.991 815.399-3.462.082-2.954-.008-32.7672.328-62.03204-13.8-5.775761-2.773"/><path d="m258.194 777.413-18.755 26.393-2.182 3.077-2.749 3.183-1.797 2.075-27.935 32.341-3.068 2.864-2.683 2.502-33.76 31.529-6.473 4.602-41.719 29.667-58.1349 29.182-57.9381 16.712"/><path d="m238.766 787.242-.615.763-.328.402-21.274 26.237-2.346 2.346-1.469 1.469-30.79 30.848-2.601 2.059-39.208 31.004-50.5378 29.248-60.4322 22.734-28.165 4.684"/><path d="m229.947 790.294-8.894 2.683-9.845 3.437-1.657.492-7.474 1.986-.78.599-1.394 1.312-1.789.804-5.341 1.026-3.15 1.231-.788-.419-53.549 1.772-16.121-3.413-26.6389-5.644-17.4093-3.692-1.485-6.317-1.1568-7.064-65.01829-38.15-2.67457-1.567-3.782143-3.527"/><path d="m226.361 791.771-5.308 1.206-8.22 1.805-15.244 3.995-8.212 2.158-54.123.665-19.403-4.865-30.9302-7.753-10.0994-2.527-1.1896-.304-27.4102-14.718-38.50236-20.683-1.50957-.812-5.209672-4.537"/><path d="m336.856 725.112-1.026 1.288-2.576 4.586-10.132 22.045-8.016 17.417-3.519 6.334-7.991 14.374-18.435 34.26-12.192 20.782-6.957 11.289-8.015 10.427-.763 1.001-.558.722-.607.755-.853.976-9.649 11.01-11.371 11.601-12.183 10.862-12.798 9.968-13.554 8.968-14.013 7.835-14.636 6.588-14.923 5.267-15.391 3.839-15.465 2.429-15.736.894-15.5962-.484-15.6454-2.027-15.3173-3.289-15.1286-4.71-14.6445-5.767-14.2671-6.982-13.64357-7.769-.254331.008"/><path d="m273.618 770.013-6.769 3.036-2.814 1.263-5.333 2.388-9.016 4.43-10.247 5.283-2.141.452-12.258 1.813-35.877 6.932-16.761-1.066-38.879-2.47-25.606-8.639-37.1484-12.528-33.063-21.15-34.49047-22.053-.11486-.066-2.100273-2.108"/><path d="m146.929 986.629-1.805 1.345-2.568 1.912-17.401 12.934-14.12 10.51"/><path d="m282.642 764.721-.279.476-.574.976-.14.247-3.035 5.152-9.673 16.466-1.313 1.878-27.713 39.619-3.922 4.578-2.642 3.076-29.453 34.368-4.397 4.093-3.659 3.405-36.099 33.621-5.423 3.799-48.823 34.154-65.806 31.701-38.691 10.05"/><path d="m189.623 803.864-.87.205-1.6.435-1.353.673-5.702.828-2.027.493-6.112.459-7.301.418-21.692 2.248-8.943.936-59.4149-8.574-48.3638-19.879-17.22059-7.072-.66454-.27-7.359172-5.251"/><path d="m107.072 3.34659-5.694-.83675-12.0271.7383-1.0912.04928-13.0201 2.7566-13.0447 4.84868-13.0529 6.9654-.2625.5742-14.6199 31.5535-2.1413 4.6271-8.4339 56.7401 2.4531 72.419-5.784 28.501 2.2397 10.69 15.5962 74.445 26.877 79.622 1.3619 4.02 33.9167 71.36 1.64 3.446 37.551 58.611 1.838 2.863 38.043 43.983 1.911 2.207 38.117 31.447 10.641 21.626 10.575 19.025 10.337 16.474 10.01 14.144 9.582 11.979 34.532.656 8.655 6.85 28.559-9.795 23.374-14.661 18.64-17.689 13.692-18.434.706-.952 10.116-19.206.525-1.001 6.957-19.485.361-.993 4.414-20.477 1.87-20.38-.295-20.289-2.125-20.256-3.577-20.273-4.652-19.977-3.782-1.017-4.184-1.46-4.652-20.396-.131-.566-5.07-20.035-.123-.467-5.185-19.289-.099-.369-4.931-17.68-.139-.476-.066-.254-4.66-16.31-.114-.427-4.234-14.48-.049-.164-3.692-12.257-.829-4.701-.229-1.592-.058-.139-.115-.55-.016-.303-1.698-2.97-1.936-2.888-1.699-1.887-.287-2.831-.328-1.263-.066-.156-.008-.033-.164-.722.271-1.263-1.338-.255-.992.722.418 2.01 1.255 1.904 1.453 7.621 1.673 2.495 1.633 2.379 1.559 2.281 1.501 2.141 1.624 1.78 1.092 2.125 1.197 1.756 1.092 1.624.664.583.468.91.673 1.403.828 1.699.468.763.714 1.575.196.435.657 1.452.328 2.231-.016 1.723 1.763 3.118 1.297.82.672 1.034.263.541.902 2.068 1.379 3.093-.008.32 1.206 2.543.828 1.19.353.976.025.328.722 1.625.525 1.173.533.64.591 1.296.147.328 2.601 5.53.796 1.55 1.395 2.995.443.943.992 2.142.008.032.074.083 1.6 3.503.008.033v.041l.238.508.099.214 2.272 4.922 1.124 2.863 1.362 3.003 1.329 2.502 1.182 2.462.853 1.887 1.247 2.994.271.599.147.345.813 1.813.311.697.337.46.213.172.312.681.131.607 4.947 11.1 1.091 2.519.525 1.198.271.672.254.64 2.995 7.45 2.133 5.316.632 1.575.295.845.131.87 5.612 16.367 1.485 4.701 2.675 9.411.32 1.616.114 1.075 3.184 16.728.033.279 1.566 15.301.165 2.313-.074 18.772-.386 2.961-.107 1.518-1.164 10.501-.55 4.972-.689 3.38-1.083 3.733-1.961 3.216-2.404 3.389-3.003 3.183-3.634 2.847-4.283 2.379-4.955 1.739-5.636.927-6.342-.082-7.031-1.296-7.729-2.74-8.392-4.398-9.033-6.317-9.566-8.393-10.067-10.715-10.378-13.102-10.6-15.653-10.567-18.058-10.403-20.477-9.927-22.48-9.287-24.268-8.369-25.367-7.301-26.049-6.03-25.859-4.701-25.179-3.29-23.645-1.953-21.7-.656-19.14.476-16.4 1.452-13.357 2.248-10.403-8.713-9.59-8.779-11.101-8.631-12.519-8.245-13.882-7.556-14.833-6.547-15.35-5.234-15.055-3.651-13.955-1.903-11.781-10.641-4.578-10.953-1.141-11.018 2.634-10.846 6.817-10.37 11.109 7.146 31.799-7.704 20.019 12.2 35.138-4.078 27.493-2.322 30.946-.418 33.424 1.493 35.319 3.356 36.066 5.103 36.229 6.62 35.328 7.95 34.023 8.959 31.939 9.772 29.699 10.255 27.024 10.575 24.392 34.679 18.361 10.986 18.016 10.673 15.334 30.274 1.329 25.343-5.957 20.682-11.124 16.36-14.735 12.495-17.131 9.032-18.746 6.014-19.822 3.388-20.576 1.19-21.109-.64-21.495-2.076-21.708-5.98-4.111-6.375-5.341-6.736-6.662-6.982-8.015-.648-21.142-1.263-20.544-1.616-19.526-1.723-18.041-1.641-16.162-1.436-13.955-1.157-11.494-.845-8.894-.541-6.202-.008-.033-1.256-1.887.115-2.937.443-.353.23-.755.665-5.677 1.263-5.226 1.321-4.603 2.059-3.905 2.1-3.462 2.035-3.503-.812-1.091-.878-.854-.952-.615-1.001-.402-1.05-.197-1.099-.033-1.132.156-1.157.263-1.19.402-1.189.476-1.214.566-1.198.591-1.206.648-1.19.631-1.181.665-1.149.615-1.14.616-1.1.549-1.083.533-1.05.46-1.025.418-.985.353-1.419.394-1.961-2.945-.632-2.757-.935-2.199-1.427.107-2.01-.033-.747-.156-2.207-1.312-1.649-.082-2.297-1.994-.722-.656-1.083-1.477-1.116-.78-1.46-1.23-1.001-.968-1.214-1.518-.772-.706-.82-.796-.533-.451-.796-.197-5.866-4.512-5.841-4.783-5.891-5.669-6.219-6.071-6.522-6.523-6.81-7.137-7.023-7.786-7.17-8.59-7.203-9.336-7.105-10.149-6.834-10.772-6.375-11.248-5.702-11.313-4.824-10.994-8.204-2.215-4.414-12.479-3.027-11.018-9.788-4.504-10.099-1.157-10.157 2.56-10.009 6.727-9.534 11.076-8.786 15.653 10.157 31.48-5.661 23.677 14.406 31.857-1.911 29.708 17.565 28.329 1.911 33.014 3.766 34.293 5.571 34.934 7.17 34.392 8.59 33.333 9.673 31.332 10.542 29.076 11.06 26.253 11.379 23.44 25.966 4.881 21.922-2.305 17.926-7.917 14.275-12.028 10.92-15.186 8.024-17.425 5.472-19.116 3.38-20.24 1.649-20.986.336-21.249-7.186-9.418-7.236-10.723-7.22-12.003-7.039-13.069 2.51-17.032 1.903-16.22 1.485-15.03 1.256-13.414 1.132-11.543 1.107-9.468 1.124-7.285 1.174-5.095 1.206-2.937-1.141-1.625-.714-1.78-1.394-1.116-.952-1.239-2.609-.369-.779-2.117-.96-1.476-1.091-1.223-.296.009-.156-1.371 1.215-.344.582-.181.615-.221.64-.263.665-.311.681-.337.714-.377.73-.394.763-.427.771-.443.804-.467.812-.46.829-.476.845-.451.853-.451 1.28-.591-.008-4.225-1.091-3.372-1.313-2.806-.779-2.617.032-2.617.123-2.108.082-1.912.673-.853.911-.181.279 1.699-1.945 1.247-1.911.443-2.117.221-2.174 1.214-1.633 1.813.895 2.183.705 2.166 1.461 2.239 1.96 2.412.763 3.463-1.46.804-.943.517-.911.459-.894.451-.862.394-.837.361-.804.295-.787.255-.747.197-1.075.18-2.83-3.355-.049-.066-1.018.041-.475-.197-.263.025-.812-.009-1.255-1.083-.452-.402-2.092-2.453-.705-.352-.985-.755-2.732-3.585-.574-1.051-4.865-4.372.344-.714-4.192-5.735-.246-.87-2.913-4.093-.877-.813-1.026-.41-2.437-4.2-1.427-1.412-1.756.788-6.087-5.677-5.858-6.359-6.104-6.793-6.301-7.244-6.465-7.819-6.539-8.335-6.514-8.926-6.358-9.369-6.063-9.747-5.595-9.812-4.972-9.632-7.269-2.994-7.416-.132-7.409 3.282-7.146 7.039-6.637 11.207-5.833 15.449-4.742 19.821-3.364 23.833-1.756 27.624.017 30.577 17.631 22.323 3.445 32.456 5.251 33.531 6.867 33.424 8.36 32.743 9.517 31.045 10.485 29.018 21.667 5.037 18.427-1.444 15.194-6.744 12.282-10.69 9.599-13.816 7.334-15.965-9.295-17.319-8.91-18.903-8.409-20.297 7.384-12.462 5.997-13.504 4.914-13.758 4.045-13.57 3.413-12.782 2.937-11.667 2.625-10.198 2.388-8.532 2.24-6.711 2.116-4.849 2.051-3.011 2.552-1.501-1.067-2.207-.878-.377-2.272-3.134-3.019-3.528-1.74-3.733-1.813-3.356-1.312.148-1.157.049-.419-.065-.057-.074-.771-.172-1.001.114-.583-.393.156-.271-.828-.419-.32-.246-.132-.156-.574-.484-.033-.032-.238-.271.345-.755-.796-.459-1.37-.452-.041-.467-.156-.271-2.519-3.019-.443-.78-.188-.697-.64-.927-.919-1.075-.796-.853-.238-1.017-1.411-1.813-1.05-1.108-1.091-1.403-.903-1.009-.623-.665-.222-.18-.738-1.017-.681-.821-.632-.615-.5-.722-.673-1.083-1.034-1.288-1.296-1.51-1.206-1.435-1.337-1.887-1.551-1.764-.96-.369-1.148-.345-1.305.902-.787 1.551-.542 2.593-.246 3.708 5.981 4.127.254 3.979 5.415 2.986.254.139 5.095 3.093.156.091 4.504 3.068.279.189.107.074 4.003 3.084.402.312.148.107 3.831 3.101.796.812 1.124 1.214.115.263 1.132 1.862 3.093 2.33.665.46 1.517 1.435.288.271.418.41.098.091.46.385-.189.788-3.585.492-3.298 1.28-3.544 2.543-3.848 3.782-4.201 4.972-4.651 5.989-5.177 6.818 4.02 12.503 4.627 12.914 5.144 12.946 5.612 12.815-3.315 15.358 6.769 14.005"/><path d="m178.071 806.497-6.891 1.059-8.311 1.099-8.418 1.231-9.147 1.78-1.707.271-5.209 1.058-1.969.345-2.937.549-3.422.706-.845.09-56.8138-3.511-64.26354-19.928-7.137661-4.185"/><path d="m180.434 805.734-8.475 1.223-9.09 1.698-5.743 1.058-2.675.173-14.398 1.542-7.228.935-58.7009-6.686-65.60084-24.613-7.523262-5.029"/><path d="m339.424 722.642-1.051.739-1.944 1.37-.459.32-.755.943-1.182 1.264-.886.566-2.879 1.714-3.2 2.618-1.288 1.887-4.02 2.822-4.16 2.699-5.414 4.996-1.067 1.461-.312.106-5.587 2.855-5.374 3.299-1.567 1.591-6.112 3.651-1.337 1.501-7.712 5.005-5.119 2.092-7.786 1.879-6.949 2.264-28.526 9.279-50.358 3.331-26.704-5.472-30.996-6.358-3.347-9.017-3.922-10.263-.385-.238-39.6922-24.72-23.3328-14.529-.2051-.131-.6399-.624-44.6227-43.81-9.533305-9.37"/><path d="m326.552 750.29-1.535 3.036-.172.353-3.265 6.489-4.537 9.033-15.022 29.871-5.095 8.262-2.199 3.561-3.043 5.201-.058.09-.5.87-7.942 14.16-8.163 13.25-9.008 13.02-9.796 12.676-.714.902-1.6 2.183-1.985 2.699-10.928 15.834-9.78 12.634-10.64 12.217-11.478 11.592-.066.074-2.223 2.24-1.69 1.714-1.986 2.101-15.21 17.286-11.757 11.699-12.667 10.977-13.529 10.132-1.411.977-1.468.984-11.544 7.187-15.169 8.036-6.227 3.58-14.095 8.12"/><path d="m206.474 930.717-5.587 5.308-7.794 7.409-5.505 5.242-6.497 6.17-31.127 29.6-.706.452-1.764 1.181-1.189.894-5.817 4.004-8.885 6.12-23.571 16.233"/><path d="m174.577 44.0639-4.71-5.3163-.787-.8942-1.411-1.444-6.498-6.6618-3.101-2.0346-1.748-1.1404-10.723-7.0474-12.273-5.8742-12.626-3.5442-12.799-1.11586-12.9462 1.38656-12.9134 3.8888-12.8724 6.4403-12.6427 8.9015-12.3965 11.3547-12.011 13.6599-11.5843 15.9162-11.0511 17.9673-3.19143 70.1208 9.40203 83.388-3.5524 30.725-2.46949 31.299 28.55059 88.326 1.1076 3.421 34.9992 74.651 3.9052 8.319 42.5303 65.97 1.534 2.387 43.704 49.34 1.616 1.83 41.916 33.03 1.641 1.296 38.207 18.697 1.616.796 35.081 7.483 9.796 10.649 29.584-4.562 8.77 5.932 8.106 4.332 7.441 2.945 22.775-16.425 6.145.172 15.4-17.68 1.345-1.534.78-.894 11.682-18.328 1.091-1.699.624-.992 9.304-20.175.467-1.009 6.252-19.936.303-.984 3.75-20.47 3.331-2.798 1.041-19.813 2.478-2.896-1.222-18.992 1.739-2.757-3.085-18.181 1.116-2.469-4.545-17.426-5.62-17.196-6.834-16.515-7.261-16.827-.426-1.042-.361-.869-3.258-7.934-2.928-7.121-1.83-3.077-2.412-4.635-3.159-8.861-1.837-4.348-2.79-4.783-2.83-8.204-1.616-4.562-2.265-5.34-.238-1.354-2.174-3.602-1.903-3.503-2.109-4.586-1.936-4.381-.164-1.247.123-1.379 1.214-5.021.673-5.119.599-5.177.509-5.16.418-5.144.304-5.054.205-4.955.065-4.784-.032-4.594-.181-4.34-.287-4.069-.435-3.758-.558-3.404 2.543-2.536-.738-3.363-.886-2.937-1.009-2.462-1.14-2.026-1.264-1.542-1.37-1.141-1.485-.689-1.567-.353-1.657.041-1.731.296-.616 3.289.033 3.733-.205 4.291-1.395 4.176-1.681 4.127-1.034 4.488-1.206 4.61-1.149 4.865-.55 5.218v.05l-.164 5.636-.516.197-.55.303.615-.139 1.083 1.271-.385 1.133.082 2.633.886 2.576 1.001 6.957 1.37 9.673 1.731 12.315 2.067 14.759 2.322 16.934 2.428 18.73 2.339 20.116 2.001 21.069 1.338 21.552.369 21.659 7.343 6.835-.394 21.568 7.499 5.374-1.658 21.134-3.872 20.404-6.465 19.452-9.509 18.05-12.946 16.088-16.827 13.209-21.085 9.147-25.687 3.364-30.413-4.43-35.024-14.751-1.821-1.288-37.099-26.246-9.837-25.539-9.46-27.952-8.909-30.388-8.065-32.423-7.048-34.302-5.726-35.475-28.313-55.723-24.4156-63.952-18.1723-68.21-10.0666-66.601 8.4749-23.776 1.3127-52.3103 11.6172-14.0702 10.0747-32.3492 12.93-4.4385 12.963-1.5014 14.8-6.4074 8.951 3.6919.287.1231 4.52 1.8623 2.872 1.1814 8.22 7.2197 10.723 10.042.968.9762 1.961 1.9199zm0 0 5.185 5.7512 2.658 3.5689 5.21 7.0145 2.338 3.1341 2.133 3.3964 2.379 3.7986 5.029 8.0237 1.083 2.0264.115.1642 3.782 7.2525 5.62 9.6728 1.707 3.1918 1.665 2.814 2.896 6.883 6.063 10.805 1.518 2.437.147.238.575 1.599-.558 2.921 8.647 11.24 1.354 2.174.689 2.445 3.684 5.956 2.887 3.987.87 1.288 3.085 5.333 1.452 2.502 3.126 4.668 1.6 2.404 2.568 3.979 1.419 2.281 1.92 3.126.467.697 5.013 7.228.55.796 2.773 4.693 4.34 6.58 4.594 5.554.583 2.043 3.774 6.563 1.197 1.707 4.382 6.013 1 1.379 4.513 6.021.902 1.19 3.897 6.301 4.947 7.129 1.789.173 4.159 6.021 4.349 6.769 4.569 6.67-.59 2.658 5.439 4.685.074 2.297 5.013 3.044 4.791 3.06 1.214.623.738.788.403.32.812.804.697.788.025.139.082.107.246.205.533 1.058.903 1.305 1.206.188 2.485 2.978-.278.673.754.78.386.754.476.452.558.303.213.14 1.05.631.829-.32.664-.016 2.601 3.626 2.322 3.389-.255.779 2.298 1.493.878 1.091.959.484.197-.238-.623-.599-.517-.402-.353-.311-.632-.386-.303-.336-.804-.895-.739-.188-.475-.64-.747-.796-1.616-1.485-.87-.829-.197-.237-.574-.517-.533-.599-.378-.173-2.888-2.051-4.135-2.461-.771-1.903-.279-1.526-.164-1.403.14-.911-.115-.147-1.403-1.116-1.764-1.428-.673-1.001-.845-.713-.623-.353-.123-.361-4.8-4.373-5.07-3.585.139-1.559.591-1.075-4.594-5.825-4.734-6.12-3.454-5.792-1.879-3.036-2.133-2.789-2.568-3.823-1.025-1.354-1.264-1.805-2.149-2.273-2.174-2.953-2.429-3.725-1.567-2.117-2.863-3.864-2.1-2.855-2.207-3.003-2.773-3.724-1.297-1.452-1.69-2.166-2.157-1.969-1.157-1.699-3.79-6.637-5.243-5.964-4.365-6.998-3.856-6.392-6.571-7.309-3.659-7.114-2.855-5.734-7.876-9.361-1.559-5.907-1.813-3.955-.123-.894"/><path d="m161.17 29.7477-2.994-2.0182-12.577-8.2042-14.144 1.8951-11.232 14.423-6.883 26.1386-1.633 35.8359 4.028 42.3581 9.32 45.394-5.734 27.542 16.474 48.454 19.567 43.392 19.222 33.301 1.928 3.339 21.405 28.698 20.65 21.003 19.148 13.553 17.295 7.236 8.253 29.617 9.427 28.51 10.28 26.557 10.92 24.35 11.231 21.635 11.371 18.927 11.224 16.031 10.952 13.34 10.493 10.69 9.96 8.319 9.32 6.137 8.656 4.249 7.933 2.577 7.22 1.181 6.498-.008 5.784-.968 5.086-1.731 4.414-2.33 3.758-2.765.18-.451 7.573-18.526 1.181-2.904 3.15-3.298 1.124-1.903.566-1.551 1.535-3.462.959-3.397 2.888-14.152 1.083-3.733 1.288-10.682.936-7.769.287-1.92.385-2.962"/><path d="m149.956 20.5096-2.043-1.288-9.607-6.1122-12.093-5.49679-12.389-3.495-6.752-.77124-5.694-.83675-3.7899-.90254-12.8642-.607103-13.0939 1.091223-2.3793.50866-10.9198 2.32175-5.8988 5.85779-11.6418 11.5515-4.5861 4.5452-14.0046 39.0273-1.6654 4.6354-5.9727 63.5002 5.7922 78.244-4.66 29.732 21.7658 88.253.402 32.874 34.1295 80.795 1.3865 3.29 39.9135 68.48 1.583 2.716 41.94 52.95 1.707 2.158 40.898 36.951 1.739 1.567 37.78 22.545 1.723 1.034 35.122 11.059 10.297 12.897 29.962-1.706 24.949-8.352 20.206-13.004 8.434 3.815 7.712 2.273 7.007.976 6.284-.098 5.587-.968 4.898-1.658 11.281-18.943 1.017-1.715.616-1.033 8.13-18.747.763-1.764.451-1.05 5.915-20.068.288-.992 3.289-19.51.156-.911 2.724-3.117.796-19.592 1.928-3.085-1.411-18.664 1.23-2.872-3.199-17.778.64-2.527-4.611-16.999.336-1.994-.123-.943-.344-1.215-.681-1.944-.845-2.428-.599-1.707-3.019-8.13-6.629-15.539-6.917-15.727-.073-.804-.115-.862-.123-.254-.074-.46-.378-.262-.672-1.493-.402-1.707-.132-.295-.172-.378-.065-.139-1.305-2.634-1.444-1.739-2.617-4.799-.591-1.362-1.468-3.356-2.24-4.282-3.438-7.261-.016-.041-1.091-.574-1.337-.796-1.617-1.042-1.608-4.291-2.272-6.079-2.215-5.924-.017-.032-1.608-1.559-1.378-2.207-2.445-1.707-1.764-5.579-2.888-9.164-.008-.016-.016-.041-2.248-6.875-1.608-5.858-1.428-3.971-1.649-3.167-1.649-4.258-1.108-1.755-1.165-1.805-.541-1.764-1.313-3.446-.796-2.067-.418-1.108-.221-.361-.484-.665.032-.352.37-.312-.304-.328.205-.829 1.641-2.461-.074-.755 1.657-2.765-.139-1.083 1.731-2.805-.213-1.362 1.796-2.921-.311-1.592 1.878-3.093-.443-1.747 1.953-3.29-.583-1.83 2.01-3.47 2.15-3.388-.837-2.035-.943-1.698-1.034-1.346-1.132-1.034-1.206-.689-1.288-.426-1.354-.123-1.403.082-1.469.328-1.493.468-1.534.648.041 3.298.574 3.56.353 4.07.148 4.479-.673 4.718-.533 4.971-.23 5.292-.943 5.636.024.181 1.157 1.657.837.566-.525 1.009-.698-.016-.27-.919.016-1.78-.861.131.262-.689.353-5.776-.107-5.234-.804-4.677-1.173-4.151-1.042-3.749-1.263-3.225-.107-3.429 2.076-1.107 1.378-.657 1.378-.615 1.354-.484 1.977-.484 1.067-3.856.377-3.397 1.625-.41 1.567-.221 1.501.098 1.436.361 1.337.738 1.255 1.059 1.149 1.476 1.042 1.855.927 2.256.804 2.65.681 3.043-2.42 2.691.517 3.028.393 3.323-2.362 2.001.27 3.151-2.248 1.665-2.125 1.797.156 2.42-2.01 1.518-1.952.943-1.887 1.1-1.813 1.961-2.06 3.954-.057-.164 1.829-4.988 1.428-4.094-.271-.747 1.469-4.053-.394-.886 1.51-4.061-.542-.96 1.862-3.511 2.109-3.216-.747-1.337 1.362-4.496-1.46-1.551-1.083-.681-1.14-.402-1.198-.197-1.256.041-1.296.197"/><path d="m157.126 809.713-3.142.484-8.68 1.469-1.707.271-6.711.886-5.644.869-1.772.87-2.101.583-.352.131-44.3277 15.785-52.3429 8.475-29.3464-1.108"/><path d="m275.725 206.45-.566-.763-4.816-4.808-4.914-3.208-5.004-1.197-4.989 1.148-4.824 3.971-4.479 7.08-3.914 10.543-3.117 14.078-2.092 17.746 11.477 10.55.025 20.412"/><path d="m370.065 329.119.952 2.206.074.156.525.878.213.304.747 1.485.09.229.074.156.599 1.305.295.574.255.583.877.681 1.896 5.111-.427.713"/><path d="m324.919 275.357.238.993.189.927 4.282 3.52.46.377.114.098.969 1.494.098 2.346.861 2.724 4.431 1.993.976 2.322 3.987 1.69.985 1.854 1.37-.073 1.378.213.09.016.156.008.575.739 2.198 2.297"/><path d="m364.849 318.421.918 1.904.55.631.361.698.312.582 1.099 1.337-.352 1.469.361 3.462 1.632 5.571 3.29 11.912"/><path d="m143.293 989.533-2.641 2.1-3.856 3.069-23.374 18.628"/><path d="m398.675 390.553.016.032.033.058 1.608 3.462.016.025.214.5.147.697 2.134 5.079"/><path d="m366.654 261.787-.509 1.263-.87 3.266-1.058 3.084-.935 3.372-.148 3.52-.189 3.856"/><path d="m364.159 263.633-.796.574-1.698 1.223-.033.024-.706.607-.763 1.493-2.461 1.239-1.075.32-.418.304-.189.098-2.108 1.37-.132.091"/><path d="m375.531 256.356-1.494 1.69-1.517 3.109-.205.312-.747 2.97-.271 3.954-1.009 4.053"/><path d="m362.248 313.351.115.164.197.262.106.164-.098.353.222.361.369.14.262.484.205.393.214.509.139.378.058.008 1.23 1.321 1.928 1.304 1.657 2.117-.763 2.264.345 1.862.123 1.083.632 1.781.787.796 1.576 1.46 2.083 3.134 1.141 3.979.336 1.985v.066l.008.057 1.937 3.29 1.714 4.135-.016.476.107.443 1.985 4.578 2.117 4.537-.246.328 2.042 7.031 2.06 6.408 1.403 1.312 1.468.353 1.723 2.683.976 2.149 2.634 5.251-.008.148-.009.147"/><path d="m373.348 335.764-.025-.041-.082-1.525.894-4.398.443-3.93.402-3.962.32-3.947.263-3.929.18-3.873.107-3.79.008-3.659-.073-3.528-.173-3.339 2.379-1.559 2.503-1.403 2.633-1.231 2.732-.951 2.839-.599 2.888-.074 2.945.632 2.945 1.542 2.929 2.732 2.831 4.201 2.691 6.03-.058 9.451-.352 10.099 2.289 9.296-.796 11.231 1.788 12.331-1.304 12.257-1.682 12.618.878 16.146-1.149 6.679"/><path d="m327.56 273.486.098.082-.016.739.114 1.05.263.344.64.772.123.106.829.927.869.903.722.057.689-.008-.106 1.001-.008 1.083.598.779-.164.895 2.339 2.469 1.074.197 2.79 2.962.697.32.074.09"/><path d="m364.135 311.817v-.435-.435l1.698-.861 1.797-.025 1.879-.353 1.969-.074 2.083.156 2.183.369 2.297.575 2.396.82 2.51 1.083 2.576 1.444"/><path d="m323.565 269.622.46.509.878 1.165.123.41.271.509.451.303.566.254.344.657.78 1.509.558.501 1.468 1.838.386.615.295.385.935.222h2.125l1.674 1.395 1.255 2.453 1.854 2.806.091.114.147.189 1.592 3.134 1.559 3.183.303.443.886.37 2.773 3.052.091.229.59.673 1.444 1.37"/><path d="m320.833 266.136.418.722 1.198 1.632.657.624.738.779.755.878 1.411 1.977.172.616.714.722 1.756 1.944 1.673 1.485.968-.139 1.395.213 1.329.041 2.248.451 1.575.714 1.608-.033 1.494 1.665 2.231-.459 2.691 1.6 2.109-.862 1.452-.664 1.485-.78 1.509-.795 1.534-.878 1.551-.862 1.567-.902.205-2.732 1.764-1.05.5-2.461 1.937-1.206.09-2.175 1.222-1.386.993-.115 2.658-.968 1.649-1.592 1.813-1.714 2.142-1.009 1.87-1.231 1.83-1.674 2.24-.681 2.092.443 2.223-1.591 2.01.451 1.854 1.181 2.757-1.206 2.305.804 2.223 1.83 1.846 2.42 1.059 3.996 1.288 4.553 2.814 2.453 1.083 5.735.837 6.571 2.74 5.079.558 7.867 2.518 7.721 1.026 1.435 1.116 2.708 1.509 10.239.394 9.049.246 3.208 1.034 13.233-.09 10.551.41 20.436-.673 11.79-.779 24.645-.755 7.146"/><path d="m324.704 271.534.525.533.755.771 1.099 1.288.804 1.182 1.838 2.715.32.32.271.501.344.033.443.517.657.065 2.6 1.969.148.189.574.303.46.173.591.254.492.123.189.238 2.124 2.666.074.107.123.156 1.953 3.068 2.19 3.421"/><path d="m361.985 312.842-.14-.115-.065-.139.508-1.469-.779-.147-.829-.025-.106-.148-.05-.057.394-1.19 1.633-4.98 2.034-3.322 1.986-2.503 1.903-2.682-.377-1.444-.427-1.288-.484-1.124 1.928-3.225 2.166-2.879-.664-1.584 1.919-3.7 2.068-3.61 2.199-3.511 2.321-3.347 2.437-3.126 2.535-2.74 2.625-2.289 2.683-1.534 2.724-.681 3.167.18 2.412 2.519.623.927 1.822 2.896 1.55 3.741.074.189-.656.377 2.043 4.734 1.837 6.235 1.6 3.799 1.42 5.636 1.124 6.629.795 7.794.476 8.721.131 9.697-.221 10.494 1.608 14.094-.73 11.7.837 17.737.008 21.224-.755 18.526"/><path d="m313.629 744.498-.082.049-.492-.205-1.19-.427-.049.025-11.248 5.513-6.128 3.011-19.986 9.804"/><path d="m363.158 314.794.14.731.139.418.246.148.156.09.148.221.041.173.73 1.657.09.189.624.738 1.222 1.879.205 1.403.009.024 1.501 3.504 1.575 3.076 1.649 3.192.197.426.09.304 1.231 1.066.189 1.805 1.723 4.143.024.066 1.78 4.176.041.23.296.549 1.862 3.955.935 1.55.534 1.206.311.985 2.109 4.873.861 1.994 1.42 2.953 2.305 4.193.025.057"/><path d="m92.682 816.072-.2543.016-17.6801 1.575-6.4567 1.436-2.7976-.246-59.34926-9.328-5.144041-1.969"/><path d="m99.8853 815.686-2.8305.123-2.8058.123-21.7329.697-4.8815.164-61.23623-12.109-5.398371-2.412"/><path d="m203.898 798.941-3.052.976-2.617.903-5.456 1.813-3.035.345-.78.533-.525 1.395-.672-.206-5.99-.065-7.515.566-28.714 2.19-10.231.78-.402.033-60.2434-10.658-21.7248-9.779-34.1131-15.35-10.66543-4.8-.18049-.082-6.981782-5.316"/><path d="m329.702 730.896-3.02 2.116-4.922 3.873-1.247 1.435-4.061 3.512-2.33 2.223-.575.492-.082.091-.902.525-1.387.476-5.34 3.175-1.042 1.066-4.907 2.109-6.932 3.175-16.589 8.934-4.348 1.214-39.348 10.994-51.177.763-29.56-7.638-28.469-7.351-.131-.033-.016-.008-37.5675-20.946-26.073-14.529-.1149-.066-.0574-.049-42.9983-38.749-15.505905-13.971"/><path d="m304.662 750.167-4.381 2.749-2.256 1.46-7.195 4.668-7.712 5.005-.476.673-3.765 2.641-.509.288-3.118.705-6.539 1.903-7.383 2.741-7.597 2.814-17.508 6.497-49.652 5.514-23.152-3.545-33.621-5.16-.254-.033-62.8201-27.582-.4184-.181-.2708-.123-38.3874-29.166-26.647304-20.24"/><path d="m323.982 269.942 1.149 1.657.5 1.288.165.698 4.323 5.316.328.049.763.443 1.51.246.246.296.5 2.157.681 1.674.206.295.147.32h.345l2.609 2.987.951.894.599.763.082.484.591-.287 2.831 3.273.09.665.869.845"/><path d="m321.686 267.235.861 1.058.459.558.419.591 1.329 1.723.287.197.952 1.46-.025.665-.312.648-.492 1.444.181 1.698.402 2.322.656 3.011 4.791 2.469.074.033 4.512 2.01 2.396 1.509 1.058.394 2.133 3.11.452 1.091 1.591.714.517.5.189.222.303.377.829 1.116.057.049 1.001 1.075.681 1.411 1.034 1.608"/></g></svg>