<svg fill="none" height="39" viewBox="0 0 150 39" width="150" xmlns="http://www.w3.org/2000/svg"><g fill="#0b090a"><path d="m24.3252 9.09634h2.3755v16.17106h7.1264v2.3234h-9.5019zm16.9016 0c1.4095 0 2.7874.4088 3.9593 1.17476 1.1719.7659 2.0853 1.8545 2.6247 3.1281.5393 1.2737.6805 2.6752.4055 4.0273-.275 1.352-.9536 2.594-1.9504 3.5689-.9965.9748-2.2664 1.6386-3.6488 1.9076-1.3824.2689-2.8153.1309-4.1175-.3966-1.3021-.5276-2.4152-1.4211-3.1983-2.5673-.783-1.1463-1.201-2.4939-1.201-3.8725 0-.9153.1844-1.8217.5425-2.6674.3582-.8456.8831-1.6141 1.5448-2.2613.6618-.6473 1.4474-1.16064 2.312-1.51101.8646-.35026 1.7913-.53055 2.7272-.53055zm0 11.61716c.9396 0 1.8582-.2726 2.6396-.7831.7812-.5106 1.3901-1.2363 1.7497-2.0855.3596-.8491.4536-1.7834.2704-2.6849-.1833-.9014-.6359-1.7293-1.3003-2.3792-.6644-.6498-1.511-1.0924-2.4326-1.2717-.9215-.1794-1.8768-.0874-2.7449.2644-.8681.3517-1.6101.9473-2.1322 1.7114-.522.7642-.8006 1.6627-.8006 2.5817.0062 1.2284.5096 2.4044 1.3999 3.2708s2.0951 1.3528 3.351 1.3528zm-4.7509 4.5771h9.5019v2.3235h-9.5019zm30.4061 2.3235h-2.3754v-1.6613c-1.532 1.0488-3.3561 1.6125-5.2261 1.6148-1.5945.0105-3.1661-.3717-4.5699-1.1114-1.404-.7397-2.5949-1.8131-3.4632-3.1212-.8684-1.3081-1.3862-2.8089-1.5057-4.3641-.1195-1.5553.163-3.1149.8217-4.5353.6585-1.4205 1.672-2.6558 2.947-3.5925 1.2749-.9367 2.7704-1.54451 4.3487-1.76733 1.5782-.22293 3.1883-.05367 4.6822.49199 1.4938.54564 2.8232 1.45014 3.8657 2.63034l-1.7461 1.5219c-.7929-.8671-1.795-1.5263-2.9151-1.9174-1.1201-.3913-2.3224-.502-3.4975-.3223-1.175.1796-2.2855.6442-3.23 1.3511-.9445.707-1.6931 1.6339-2.1775 2.6963-.4845 1.0624-.6894 2.2264-.596 3.3862.0933 1.1597.4818 2.2781 1.1304 3.2532.6484.9753 1.5361 1.7762 2.582 2.3299 1.0461.5536 2.2171.8424 3.4064.8401.9871.002 1.963-.2046 2.8608-.6056.8979-.401 1.6967-.987 2.3415-1.7178h-6.4137v-2.3235h8.7536zm8.7418-18.47129c1.4095 0 2.7874.4088 3.9593 1.17469 1.1719.766 2.0853 1.8546 2.6247 3.1282.5394 1.2737.6805 2.6752.4055 4.0273-.275 1.352-.9536 2.594-1.9503 3.5689-.9966.9748-2.2664 1.6386-3.6489 1.9075-1.3824.269-2.8153.131-4.1174-.3966-1.3022-.5275-2.4152-1.421-3.1982-2.5672-.7831-1.1463-1.2012-2.4939-1.2012-3.8725-.0062-.9212.1743-1.8345.5311-2.6871.3568-.8525.8829-1.6275 1.5478-2.2799.6649-.6526 1.4554-1.16965 2.3259-1.52142.8705-.35188 1.8036-.53148 2.7455-.52834zm0 11.61719c.9397 0 1.8583-.2726 2.6396-.7832.7812-.5105 1.3902-1.2363 1.7497-2.0855.3597-.8491.4538-1.7833.2704-2.6847-.1833-.9015-.6358-1.7294-1.3002-2.3793s-1.5109-1.0925-2.4326-1.2717c-.9216-.1794-1.8769-.0874-2.745.2644-.8681.3516-1.6101.9472-2.1321 1.7114-.5221.7642-.8007 1.6627-.8007 2.5817.0187 1.2243.5308 2.392 1.4249 3.2491s2.0979 1.3343 3.3498 1.328zm-4.7509 4.5771h9.5019v2.3234h-9.5019zm14.4073-16.24076h2.3755v18.47126h-2.3755zm5.666 0h2.3749c.1222-.01267.2456-.01267.3678 0 .9952-.1056 2.0024-.005 2.9538.29507.9526.30019 1.8304.79309 2.5754 1.44679s1.3409 1.4535 1.7469 2.3474c.409.8938.62 1.8616.62 2.8404 0 .9787-.211 1.9465-.62 2.8404-.406.8938-1.0019 1.6936-1.7469 2.3473s-1.6228 1.1466-2.5754 1.4468c-.9514.3001-1.9586.4007-2.9538.2951h-.3678v4.6468h-2.3749zm2.3749 2.32346v9.1891h.3678c.6714.0874 1.3535.0336 2.0012-.1578.6489-.1916 1.2468-.5162 1.7569-.9524.5089-.4361.917-.9737 1.1957-1.5766.28-.6029.4247-1.2573.4247-1.9194 0-.662-.1447-1.3164-.4247-1.9194-.2787-.6029-.6868-1.1404-1.1957-1.5765-.5101-.4361-1.108-.7608-1.7569-.9523-.6477-.1915-1.3298-.2453-2.0012-.158-.1293.0132-.2563.0405-.3797.0814zm17.1159-.9875-1.758 1.3592c-.304-.3099-.691-.5288-1.117-.6308s-.873-.0829-1.288.055c-.416.1377-.782.3888-1.057.7232-.274.3346-.446.7389-.493 1.1654v.1858c0 1.0223.724 1.7077 2.137 1.8007 5.441.3253 7.934 2.823 7.934 6.1222v.2091c-.14 1.3058-.661 2.5448-1.501 3.5693-.838 1.0246-1.962 1.7918-3.235 2.2103-1.271.4185-2.64.4707-3.942.1505-1.302-.3203-2.482-.9995-3.401-1.957l1.818-1.3708c.422.4434.939.7914 1.513 1.0202.575.2286 1.193.3325 1.812.3041 1.145.059 2.267-.3165 3.135-1.0482.867-.7318 1.412-1.7629 1.521-2.8784v-.1626c0-3.1018-3.112-3.671-5.808-3.9266-2.495-.2323-4.287-1.7542-4.287-3.9498v-.093c.088-1.1431.62-2.2096 1.49-2.9791.868-.76961 2.006-1.18365 3.177-1.15658.621-.01789 1.239.09166 1.813.3218.576.23013 1.095.57558 1.525 1.01418zm13.658 14.777c2.958 0 5.298-3.125 5.298-6.9703v-9.29369h2.375v9.29369c0 5.1116-3.42 9.2357-7.625 9.2357-4.204 0-7.625-4.1241-7.625-9.2357v-9.29369h2.376v9.29369c-.095 3.9034 2.244 7.0284 5.19 7.0284zm25.905 2.3234h-2.375v-11.5009l-5.476 6.9703-5.475-6.9703v11.5358h-2.375v-18.47126l7.839 10.09526 7.838-10.09526z"/><path d="m12.9226 6.31972c0-1.67612-.6807-3.28358-1.8925-4.46876-1.21165-1.185182-2.85512-1.85096-4.56881-1.85096-1.7137 0-3.35716.665778-4.56882 1.85096-1.211784 1.18518-1.89247 2.79264-1.89247 4.46876v19.11018l5.32104 3.7291v9.0846h2.2805v-9.0846l5.32106-3.7291zm-2.2804 10.68778-3.04066 2.974v-2.7881l3.04066-2.974zm-8.31425-2.7881 3.04066 2.974v2.7881l-3.04066-2.974zm8.31425-3.1599-4.18091 4.0893-4.18091-4.1822v-2.78813l4.18091 4.08923 4.18091-4.08923zm-4.18091-8.82901c.91948.00395 1.81227.30263 2.54171.85026.72933.54763 1.2551 1.31401 1.4966 2.18181l-4.03831 3.93822-4.03832-3.93822c.23275-.87639.75471-1.65323 1.48486-2.20981.73015-.55669 1.62769-.86199 2.55346-.86873zm-4.18091 22.07261v-4.1822l3.04066 2.974v3.3225zm5.32116 2.1259v-3.3341l3.04066-2.974v4.1705z"/></g></svg>