<svg fill="none" height="29" viewBox="0 0 130 29" width="130" xmlns="http://www.w3.org/2000/svg"><path d="m0 28.5226h29.2767v-28.52259999h-29.2767zm23.6416-17.0056h-6.1863v-6.0271h6.1863zm-18.00775-6.0271h6.18985v11.5158h11.8179v6.027h-18.00775zm42.70755-5.48989999c-2.8951 0-5.7253.83643899-8.1326 2.40356999-2.4073 1.56702-4.2836 3.79434-5.3915 6.40018-1.1079 2.60595-1.3978 5.47345-.833 8.23985.5649 2.7664 1.9591 5.3075 4.0062 7.302 2.0472 1.9945 4.6555 3.3528 7.4951 3.903 2.8395.5503 5.7828.2679 8.4577-.8115 2.6748-1.0795 4.961-2.9073 6.5695-5.2527 1.6085-2.3451 2.467-5.1024 2.467-7.9231-.0046-3.7809-1.5483-7.40576-4.2926-10.07932-2.7441-2.67356-6.4648-4.17753202-10.3458-4.18197999zm0 23.03269999c-1.7807 0-3.5213-.5144-5.0019-1.4782-1.4806-.9639-2.6346-2.3337-3.3161-3.9364-.6814-1.6029-.8597-3.3665-.5123-5.0679.3474-1.7015 1.2049-3.26451 2.464-4.49115 1.2592-1.22675 2.8633-2.06208 4.6099-2.40057 1.7464-.33838 3.5567-.16468 5.2018.49917 1.6452.66386 3.0513 1.78808 4.0406 3.23056.9893 1.44249 1.5173 3.13829 1.5173 4.87309-.0036 2.3253-.9534 4.5543-2.641 6.1985-1.6877 1.6441-3.9756 2.5694-6.3623 2.5729zm67.0216-23.03269999c-2.896-.0001112-5.725.83610499-8.133 2.40300999-2.407 1.56691-4.284 3.79412-5.392 6.39996-1.108 2.60593-1.399 5.47343-.833 8.23993.564 2.7664 1.958 5.3077 4.006 7.3023 2.047 1.9945 4.655 3.3529 7.495 3.9033s5.782.2681 8.457-.8113 4.962-2.9073 6.57-5.2526c1.609-2.3452 2.467-5.1026 2.467-7.9233-.005-3.7808-1.548-7.40543-4.292-10.07899-2.744-2.67345-6.465-4.17752843-10.345-4.18230999zm0 23.03269999c-1.781.0002-3.522-.514-5.002-1.4776-1.481-.9638-2.635-2.3336-3.317-3.9364-.681-1.6027-.86-3.3663-.513-5.0679.347-1.7015 1.205-3.26456 2.464-4.49142 1.26-1.22675 2.864-2.0623 4.61-2.40079 1.746-.3386 3.557-.16491 5.202.49895s3.051 1.78808 4.041 3.23056c.989 1.4425 1.517 3.1384 1.517 4.8732-.003 2.3251-.953 4.5539-2.64 6.198-1.688 1.6442-3.975 2.5696-6.362 2.5734zm-33.5119-23.03269999c-2.8944 0-5.7249.83643899-8.1322 2.40356999-2.4073 1.56702-4.2834 3.79434-5.3914 6.40018-1.1079 2.60595-1.3978 5.47345-.833 8.23985s1.959 5.3075 4.0062 7.302 4.6556 3.3528 7.4948 3.903c2.8396.5503 5.783.2679 8.4574-.8115 2.6755-1.0795 4.9612-2.9073 6.5696-5.2527 1.6085-2.3451 2.4669-5.1024 2.4669-7.9231-.0045-3.7809-1.548-7.40576-4.2919-10.07932-2.744-2.67356-6.4648-4.17753202-10.3464-4.18197999zm0 23.03269999c-1.6587.0009-3.2854-.4449-4.7012-1.2882-1.4152-.8432-2.564-2.051-3.3192-3.4902-.7552-1.4391-1.0876-3.0535-.9605-4.6651.1271-1.6115.7088-3.1575 1.681-4.46731.972-1.30982 2.2966-2.3324 3.8275-2.95501 1.531-.62271 3.2091-.82098 4.8483-.57323 1.6393.24775 3.1771.93207 4.4425 1.97735 1.2654 1.04516 2.2093 2.41079 2.7291 3.946h-8.5475v5.4887h8.5475c-.5951 1.7518-1.7408 3.2767-3.274 4.3585-1.5344 1.0818-3.3789 1.6656-5.2735 1.6685z" fill="#0b090a"/></svg>