<svg fill="none" height="34" viewBox="0 0 150 34" width="150" xmlns="http://www.w3.org/2000/svg"><g fill="#0b090a"><path d="m32.2477 11.8336c.4378 0 .5837.1547.5837.5709v9.4193h4.9489c.4257 0 .5837.1547.5837.5709v.8325c0 .4163-.158.5709-.5837.5709h-6.5175c-.4255 0-.5958-.1546-.5958-.5709v-10.8227c0-.4162.1703-.5709.5958-.5709z"/><path d="m42.6797 15.9842c0-2.7474 1.7753-4.4005 4.8639-4.4005 3.0884 0 4.8637 1.6531 4.8637 4.4005v3.663c0 2.7473-1.7874 4.4005-4.8637 4.4005-3.0764 0-4.8639-1.6532-4.8639-4.4005zm7.6849 0c0-1.5461-.9849-2.3787-2.7602-2.3787-1.7754 0-2.7481.8444-2.7481 2.3787v3.6868c0 1.558.9727 2.3786 2.7481 2.3786 1.7753 0 2.7602-.8563 2.7602-2.3786z"/><path d="m66.8898 17.2448c.4741 0 .5837.1546.5837.5709v2.2597c.0129.5322-.0963 1.0605-.3193 1.5462s-.5544.9164-.9697 1.2605c-1.0315.8034-2.332 1.202-3.6479 1.118-3.1493 0-4.8637-1.6531-4.8637-4.4005v-3.6868c0-2.7116 1.7752-4.3767 4.8637-4.3767 2.432 0 4.0127.9396 4.6815 2.8187.0374.0705.0574.1488.0585.2282.0012.0796-.0167.1582-.0521.2298s-.0874.1342-.1518.1826c-.0645.0485-.1395.0815-.2194.0968l-.9484.3211c-.4135.1427-.5837.0594-.7296-.3568-.2014-.5081-.5702-.9359-1.0481-1.2158-.4779-.2801-1.0375-.3963-1.5906-.3303-1.7874 0-2.7602.8444-2.7602 2.3786v3.782c0 1.558.9849 2.3786 2.7602 2.3786s2.8698-.7968 2.8698-1.9623v-.8801h-2.6387c-.4378 0-.5958-.1665-.5958-.5828v-.8087c0-.4163.158-.5709.5958-.5709z"/><path d="m72.4951 15.9839c0-2.7473 1.7753-4.4004 4.8638-4.4004 3.0886 0 4.8639 1.6531 4.8639 4.4004v3.6631c0 2.7473-1.7875 4.4005-4.8639 4.4005s-4.8638-1.6532-4.8638-4.4005zm7.6727 0c0-1.5461-.9849-2.3786-2.7481-2.3786-1.7631 0-2.7602.8444-2.7602 2.3786v3.6869c0 1.558.9849 2.3786 2.7602 2.3786s2.7481-.8563 2.7481-2.3786z"/><path d="m87.9502 12.1785c0-.2616.085-.3449.3534-.3449h.5586c.2672 0 .3279.0833.3279.3449v11.2747c0 .2616.0001.3449-.3279.3449h-.5586c-.2684 0-.3534-.0833-.3534-.3449z"/><path d="m100.269 11.8335c1.013 0 1.983.3934 2.7 1.0937.715.7004 1.118 1.6503 1.118 2.6407s-.403 1.9403-1.118 2.6406c-.717.7003-1.687 1.0939-2.7 1.0939h-3.6482v4.1506c0 .2617-.0607.3449-.3157.3449h-.572c-.2551 0-.3522-.0832-.3522-.3449v-11.2746c0-.2617.0971-.3449.3522-.3449zm-.109 6.2914c.347 0 .692-.067 1.014-.1974.322-.1302.613-.3212.86-.5619.246-.2409.44-.5267.574-.8412.134-.3146.202-.6518.202-.9922 0-.3405-.068-.6776-.202-.9922s-.328-.6004-.574-.8411c-.247-.2408-.538-.4317-.86-.562-.322-.1304-.667-.1973-1.014-.1973h-3.6485v5.1853z"/><path d="m113.583 11.5956c.939-.1014 1.886.0962 2.701.5633s1.455 1.1788 1.823 2.0293c.097.1903 0 .3451-.194.4402l-.536.2378c-.219.0832-.304.0714-.437-.1545-.276-.6314-.75-1.1607-1.353-1.5113-.604-.3506-1.304-.5045-2.004-.4392-2.055 0-3.173.7968-3.173 2.224-.012.4361.138.8618.421 1.1983.284.3367.683.5615 1.123.6332.654.2086 1.331.3365 2.019.3806.831.0433 1.65.2077 2.431.4876.599.1853 1.115.5667 1.46 1.08.346.5132.5 1.1272.437 1.7387 0 2.224-1.654 3.5679-4.694 3.5679-.997.1116-2.002-.1145-2.85-.6403-.848-.5259-1.485-1.3199-1.806-2.2497-.022-.0425-.034-.089-.034-.1363-.001-.0472.009-.0942.028-.1374.019-.0431.049-.0815.086-.1124.037-.0308.079-.0532.127-.066l.534-.1901c.042-.0169.087-.025.133-.0238.045.0012.09.0116.132.0307.041.0189.077.0461.108.0798.029.0335.052.0729.065.1155.272.6718.756 1.2415 1.381 1.6263.626.385 1.359.5651 2.096.5144 2.299 0 3.43-.7849 3.43-2.3786.021-.419-.111-.8318-.37-1.1649-.262-.3333-.634-.5652-1.053-.6547-.629-.1837-1.278-.2955-1.934-.3332l-1.313-.1664c-.41-.0854-.817-.1925-1.215-.3212-.395-.1164-.762-.3061-1.082-.5588-.323-.2858-.577-.6374-.746-1.03-.168-.3926-.245-.8164-.227-1.2416.085-2.0813 1.677-3.4372 4.486-3.4372z"/><path d="m124.855 19.7305c.051.841.43 1.631 1.056 2.2087.627.5776 1.457.8993 2.318.8993.862 0 1.69-.3217 2.317-.8993.628-.5777 1.005-1.3677 1.058-2.2087v-7.5521c0-.2617.085-.3449.352-.3449h.56c.267 0 .352.0832.352.3449v7.5402c0 2.6997-1.63 4.3291-4.633 4.3291-3.004 0-4.633-1.6294-4.633-4.3291v-7.5402c0-.2617.086-.3449.341-.3449h.571c.256 0 .341.0832.341.3449z"/><path d="m149.648 11.8336c.267 0 .352.0833.352.3449v11.2747c0 .2616-.085.3449-.352.3449h-.511c-.255 0-.34-.0833-.34-.3449v-6.8624c0-.9985.069-1.9959.206-2.9851h-.073c-.38.9047-.822 1.7829-1.325 2.6284l-2.614 4.5074c-.032.0782-.088.1451-.159.1917-.072.0468-.156.0712-.242.07h-.341c-.088.0003-.173-.0242-.247-.0707-.073-.0463-.131-.1128-.166-.191l-2.651-4.555c-.47-.8335-.877-1.7001-1.216-2.5927h-.073c.125.9984.19 2.0031.194 3.0089v6.8505c0 .2616-.085.3449-.352.3449h-.475c-.267 0-.352-.0833-.352-.3449v-11.2747c0-.2616.085-.3449.352-.3449h.439c.099-.0091.2.0123.288.0613.086.049.156.1231.198.2123l4.256 7.3975 4.231-7.3262c.134-.2497.207-.2854.474-.2854z"/><path d="m10.6153 21.1578v8.5987c0 .3297-.1338.6458-.3722.8788-.2383.2331-.56148.364-.89849.364s-.66018-.1309-.89845-.364c-.2384-.233-.37223-.5491-.37223-.8788v-8.5868c.35377.2527.77798.3938 1.21591.4044.47752.0133.94516-.1336 1.32546-.4163zm10.822-2.4857c-.3224 0-.6318.1254-.8598.3484s-.3561.5256-.3561.841v1.4985c0 .3297.1338.6458.3721.8788.2383.2331.5615.364.8986.364.337 0 .6601-.1309.8984-.364.2383-.233.3722-.5491.3722-.8788v-1.4391c.0094-.1705-.0188-.3411-.0827-.5-.064-.1589-.1621-.3025-.2879-.421-.1257-.1184-.2762-.2091-.4409-.2656-.1648-.0566-.34-.0777-.5139-.0622zm-16.12358 5.7444c-.43757-.0128-.86105-.1536-1.21591-.4044v8.6225c0 .3313.13444.6489.37393.8831.23937.2342.56411.3657.90282.3657.33859 0 .66334-.1315.90271-.3657.23949-.2342.37405-.5518.37405-.8831v-8.563c-.39713.2511-.86566.3719-1.3376.3449zm12.15958-8.3252c-.1648-.008-.3295.0168-.4841.073-.1546.0561-.2959.1424-.4153.2536-.1194.1114-.2145.2451-.2793.3935-.0649.1483-.0983.308-.098.4693v6.6244c0 .3312.1344.6489.3739.8831.2395.2341.5642.3657.9028.3657s.6633-.1316.9028-.3657c.2394-.2342.374-.5519.374-.8831v-6.5412c.0097-.1716-.0189-.3432-.0835-.5031-.0647-.1598-.1639-.3041-.2911-.4228-.1271-.1187-.2791-.2091-.4453-.2647-.1663-.0558-.3429-.0756-.5177-.0582zm-4.037 2.5452c-.458-.0031-.9039-.1443-1.2767-.4044v8.6463c0 .3312.1344.6489.3739.883.2394.2342.5641.3658.9028.3658.3386 0 .6634-.1316.9027-.3658.2395-.2341.3741-.5518.3741-.883v-8.6344c-.3858.281-.8567.4276-1.3376.4163zm-10.88279 6.6244v-24.15484c-.00316-.294475-.12509-.575746-.33908-.782805-.21398-.207058-.5029-.323255-.80396-.323255h-.26743c-.301059 0-.589978.116197-.803965.323255-.213987.207059-.33591742.48833-.339075.782805v24.15484c0 .2965.120473.5809.334824.7906.214351.2096.504971.3274.808216.3274h.26743c.30312 0 .59386-.1178.80822-.3274.21435-.2097.33482-.4941.33482-.7906zm2.89392-1.7602h-.26742c-.30313 0-.59387-.1177-.80822-.3274-.21435-.2096-.33483-.494-.33483-.7905v-18.39861c.00316-.29448.12509-.57575.33908-.78281.21399-.20705.50291-.32325.80397-.32325h.26742c.30106 0 .58998.1162.80397.32325.21398.20706.33592.48833.33907.78281v18.42241c0 .2965-.12047.5808-.33482.7905s-.50509.3274-.80822.3274zm4.02482-2.8305h-.27969c-.29984 0-.58743-.1166-.79959-.324-.21205-.2074-.33119-.4887-.33119-.7821v-12.72558c-.00158-.14628.02648-.29137.08259-.42695.0561-.13547.13918-.25892.24435-.36286.10517-.10395.23038-.18649.36834-.24286.13796-.05625.286-.08527.4355-.08527h.27969c.30106.00309.58865.12226.80045.33158.2117.20931.3304.49189.3304.78636v12.72558c0 .2934-.1191.5747-.3311.7821-.2122.2074-.49978.324-.79975.324zm4.02485-2.9138h-.2553c-.3011 0-.59-.1161-.804-.3233-.214-.207-.3359-.4883-.3391-.7828v-6.85039c-.0099-.15271.0122-.30578.0651-.4498.053-.14391.1357-.2758.2428-.38724s.2366-.20028.3803-.26093c.1436-.06054.2983-.0917.4549-.09134h.2674c.3033 0 .5939.11774.8082.32741.2144.20968.3349.49404.3349.79054v6.89795c.0015.1479-.0268.2945-.0835.4315s-.1407.2617-.247.3668c-.1063.105-.2328.1885-.3723.2454s-.2891.0862-.4403.0862zm4.0369-2.557h-.2674c-.3031 0-.5939-.1178-.8082-.3274-.2144-.2097-.3348-.4941-.3348-.7906v-1.7721c.0031-.2944.1251-.5757.339-.7828.214-.207.503-.3232.804-.3232h.2674c.3011 0 .59.1162.804.3232.214.2071.3359.4884.3391.7828v1.7721c0 .2945-.1188.5771-.3305.7864-.2118.2093-.4994.3285-.8004.3316z"/></g></svg>