<svg fill="none" height="13" viewBox="0 0 150 13" width="150" xmlns="http://www.w3.org/2000/svg"><path d="m74.7021 12.6591h-5.1551v-12.475899h5.1551zm-4.6517-.4557h4.1482v-11.564475h-4.1482zm11.8246.4557h-5.0515v-12.475899h10.5534c1.5125-.1108318 3.0179.273435 4.2437 1.082799.5269.43686.9362.97817 1.1947 1.58164.2584.60347.359 1.25279.2946 1.89736.0744 1.11379-.3168 2.21227-1.0971 3.07614-.9232.95884-2.4597 1.45285-4.5655 1.47016-.5309.01277-4.5071 0-5.5693 0zm-4.5511-.4557h4.0476v-3.37238h.2528c.0513 0 5.2136.01459 5.811 0 1.9619-.01549 3.3728-.45572 4.1974-1.31522.6938-.78166 1.0387-1.77085.9663-2.77171.0624-.5775-.0241-1.16018-.2514-1.70286-.2262-.54259-.5882-1.03058-1.0578-1.42614-1.1354-.738186-2.5261-1.084718-3.9199-.977075h-10.043zm8.9841-5.7148h-4.9707v-3.39606h5.0039c.3549-.04439.716-.00692 1.0508.10892.3339.11585.6305.30634.8628.55371.2092.31618.3088.68267.2836 1.0509.0191.34188-.0623.68222-.2363.98618-.2393.26059-.5481.46111-.897.58242-.349.12131-.7271.15932-1.0971.11028zm-4.4673-.45572h4.4673c.8256 0 1.3374-.15586 1.5637-.47669.1247-.23324.181-.49155.1639-.75012.0221-.27162-.0422-.54313-.187-.78202l-.0061-.00821c-.2393-.31901-.716-.46757-1.5013-.46757h-4.5005zm20.4563 6.81032c-4.5211 0-7.2191-1.0162-8.2469-3.1062-.1679-.40368-.2825-.82413-.3409-1.25233l-.0442-.26249h5.379l.0352.1914c.0412.19432.1327.37725.2654.53411.2132.23242.9214.62252 3.2734.62252 2.828 0 2.828-.44935 2.828-.69088 0-.40742-.328-.54687-2.633-.76926l-.438-.03737c-.868-.07383-1.965-.16771-2.4672-.2069-4.2286-.34635-6.1171-1.53579-6.1171-3.85543 0-2.4363 3.2129-4.01037 8.1863-4.01037 4.057 0 6.671.967959 7.767 2.87927.26.4446.435.92603.516 1.42368l.036.25611h-5.385l-.022-.20598c-.022-.16096-.097-.31199-.218-.43203-.201-.24427-.837-.64804-2.813-.64804-2.4259 0-2.7597.28073-2.7597.58333 0 .40377.7662.54687 3.2217.78475 1.024.07565 2.67.22878 3.234.29076 3.545.34817 5.127 1.50844 5.127 3.76337.001 1.89128-1.453 4.14798-8.384 4.14798zm-8.0437-4.1653c.0503.3006.1367.59518.2584.87864.9372 1.90406 3.4844 2.83096 7.7853 2.83096 3.596 0 7.885-.638 7.885-3.69228 0-1.99881-1.4-2.98864-4.681-3.31038-.564-.06198-2.2-.21419-3.222-.29075-2.6176-.25703-3.6825-.39375-3.6825-1.23775 0-.87317 1.1474-1.03905 3.2635-1.03905 1.673 0 2.753.27343 3.211.82486.125.1358.22.29248.278.46119h4.363c-.087-.35255-.226-.69297-.412-1.01262-1.007-1.74907-3.467-2.634996-7.321-2.634996-4.6667 0-7.6825 1.395426-7.6825 3.554646 0 2.05987 1.6924 3.07705 5.6575 3.40153.504.03919 1.6.13307 2.47.20781l.441.03737c2.141.20416 3.086.33177 3.086 1.22225 0 .95884-1.221 1.14657-3.331 1.14657-1.951 0-3.1838-.2652-3.6595-.78746-.1468-.16652-.2574-.35674-.3268-.56054zm25.9927 4.1498c-5.255 0-8.155-1.924-8.155-5.41854v-7.225959h5.086v7.225959c0 1.19856 1.186 1.88579 3.25 1.88579 1.974 0 3.199-.71731 3.199-1.87029v-7.241459h5.035v7.608769c.005 3.20013-3.065 5.03573-8.418 5.03573zm-7.651-12.188775v6.770235c0 4.31844 4.79 4.96284 7.651 4.96284 2.959 0 7.919-.5952 7.919-4.58003v-7.153045h-4.027v6.785735c0 1.41274-1.454 2.32601-3.702 2.32601-2.35 0-3.754-.87499-3.754-2.34151v-6.770235zm37.399 12.020175h-4.801v-5.63274l-2.722 5.63274h-4.187l-2.695-5.62181v5.62181h-4.818v-12.475899h6.337l3.292 6.878699 3.453-6.878699h6.147zm-4.297-.4557h3.794v-11.564475h-5.318l-3.789 7.545885-3.61-7.545885h-5.503v11.564475h3.811v-7.35905l3.523 7.36175h3.524l3.562-7.35081zm-141.11174-11.792337h-4.58526v12.020137h12.6703v-3.20005h-8.08504zm17.34014-.273433c-5.8528 0-8.9309 2.51104-8.9309 6.19785 0 4.16532 3.2311 6.27802 8.9309 6.27802 6.2748 0 8.9138-2.4499 8.9138-6.27802 0-3.88733-2.9773-6.199676-8.9138-6.199676zm-.0171 3.12353c.3984-.00173.7967.01932 1.1922.06289l-5.126 4.64018c-.2426-.49664-.3608-1.03576-.3463-1.57862 0-1.88579 1.0491-3.12627 4.2801-3.12627zm.0171 6.27806c-.3838.00155-.7675-.01796-1.1488-.05833l5.135-4.64839c.2335.48844.3453 1.01745.3273 1.54946 0 1.83475-.9666 3.15544-4.3135 3.15544zm17.9986-1.64061h4.7192c-.0694.2965-.2142.57421-.4228.81119-.9784.7215-2.227 1.07259-3.4848.97981-.6331.06134-1.2733-.00128-1.8773-.18357-.6041-.18229-1.1578-.47988-1.6236-.8728-.477-.63355-.7038-1.39443-.6433-2.15922-.0772-.80144.1693-1.60096.6937-2.25037.6595-.67447 1.7761-.96522 3.4173-.96522 1.0442-.07829 2.0871.16452 2.9602.68905.2751.19788.4809.46384.592.76562h4.3768c-.0318-.4972-.1638-.985-.3896-1.43918-1.0481-1.92953-3.4848-3.077958-7.628-3.077958-3.6036 0-6.0221.995298-7.3581 2.496458-.8825 1.08398-1.3355 2.40567-1.2858 3.75152-.0571 1.3762.3841 2.7317 1.2565 3.85996 1.3201 1.5495 3.6711 2.3115 6.4963 2.3115 1.8784.1185 3.7438-.3577 5.2769-1.3472l.1189 1.163h3.6358v-7.12019h-8.8303zm19.1496-7.763717c-5.8519 0-8.9309 2.511037-8.9309 6.197847 0 4.16536 3.23 6.27806 8.9309 6.27806 6.2758 0 8.9147-2.45 8.9147-6.27806 0-3.88459-2.9772-6.196936-8.9147-6.196936zm-.0161 3.123537c.3879-.0011.7756.01905 1.1609.06015l-5.1058 4.62469c-.235-.49118-.3494-1.02264-.3353-1.55766-.004-1.88579 1.0492-3.12627 4.2802-3.12627zm.0161 6.27806c-.3941.00145-.7878-.01924-1.1791-.06198l5.1521-4.6648c.2424.49492.3583 1.03295.3393 1.57407.002 1.83292-.9605 3.15362-4.3123 3.15362z" fill="#0b090a"/></svg>