<svg fill="none" height="34" viewBox="0 0 150 34" width="150" xmlns="http://www.w3.org/2000/svg"><g fill="#0b090a"><path d="m36.1729 7.75024h3.4703v16.34926h-3.4703z"/><path d="m41.5865 18.4991c0-1.1763.357-2.326 1.0259-3.3036.6689-.9775 1.6194-1.7389 2.7312-2.1874 1.1117-.4486 2.3346-.5642 3.5135-.3323 1.1791.232 2.2612.8011 3.1091 1.6353.8479.8341 1.4236 1.8957 1.654 3.0501.2304 1.1545.1051 2.3499-.3599 3.4347-.4649 1.0848-1.2487 2.0101-2.252 2.6587s-2.1809.9913-3.3835.9845c-.7976.0061-1.5885-.1436-2.3262-.4404-.7377-.2967-1.4074-.7346-1.9697-1.2879-.5624-.5532-1.0063-1.2107-1.3055-1.9339s-.4478-1.4977-.4369-2.2778zm8.699 0c-.0137-.5071-.1799-.999-.4779-1.4142-.2979-.4152-.7145-.7352-1.1975-.9201-.4829-.1849-1.0109-.2264-1.5179-.1194-.507.1071-.9704.358-1.3323.7213-.362.3633-.6064.823-.7026 1.3214-.0963.4985-.0402 1.0137.1613 1.4812.2015.4674.5394.8663.9715 1.1469.4321.2805.9392.4303 1.4578.4304.3532.0068.704-.0578 1.0304-.1896.3265-.1319.6216-.3282.867-.5767.2452-.2485.4356-.5438.559-.8675s.1772-.6688.158-1.0137z"/><path d="m67.394 12.8986v10.6468c0 3.7564-3.0076 5.3517-6.05 5.3517-1.0731.0861-2.1495-.1224-3.108-.6022-.9585-.4797-1.761-1.2116-2.3173-2.1133l2.9266-1.6518c.2372.4676.6144.8535 1.0816 1.1062.467.2526 1.0017.3601 1.5328.308.3384.0408.6816.008 1.0055-.0962.3238-.1041.6202-.277.8678-.5061.2474-.2293.4403-.5091.5643-.8196.1241-.3105.1766-.6441.1536-.9767v-1.0296c-.4038.4789-.9163.8591-1.4965 1.1105-.5804.2514-1.2127.367-1.8466.3377-1.534 0-3.0051-.596-4.0899-1.657-1.0846-1.0609-1.6941-2.4997-1.6941-4.0001s.6095-2.9394 1.6941-4.0002c1.0848-1.061 2.5559-1.657 4.0899-1.657.6339-.0293 1.2662.0863 1.8466.3377.5802.2513 1.0927.6316 1.4965 1.1105v-1.1314zm-3.3431 5.3743c.0231-.5413-.1199-1.077-.4106-1.5382-.2907-.4611-.7159-.8267-1.2206-1.0497-.5049-.223-1.0663-.2932-1.6123-.2015-.546.0916-1.0514.3409-1.4513.7157-.4.3749-.6761.8582-.7929 1.3878s-.0691 1.0812.1372 1.5841c.2064.5028.5617.9337 1.0205 1.2374.4586.3037.9998.4663 1.5537.4667.3615.0255.7244-.0235 1.0652-.1437.341-.1202.6522-.3091.9139-.5544.2616-.2452.4677-.5414.6051-.8694.1373-.328.2027-.6805.1921-1.0348z"/><path d="m69.349 18.4991c0-1.1753.3565-2.3242 1.0243-3.3013.6679-.9771 1.617-1.7384 2.7274-2.1876 1.1104-.4493 2.3321-.5663 3.5104-.3361 1.1785.2301 2.2606.7969 3.1094 1.6288.8489.8319 1.4264 1.8914 1.6595 3.0443.233 1.1531.111 2.3477-.3504 3.4329-.4614 1.0853-1.2416 2.0121-2.2419 2.6635-1.0002.6513-2.1755.9978-3.3772.9956-.7992.0075-1.5917-.141-2.3314-.437-.7398-.296-1.4115-.7334-1.9761-1.2867-.5646-.5532-1.0105-1.2112-1.3117-1.9352s-.4516-1.4996-.4423-2.2812zm8.6991 0c-.0138-.5075-.1803-.9999-.4787-1.4154-.2986-.4153-.7158-.7354-1.1994-.92-.4836-.1845-1.0122-.2253-1.5195-.1173-.5072.1079-.9706.36-1.3321.7245-.3615.3644-.605.8251-.6999 1.3243-.095.4992-.0372 1.0147.1661 1.4818.2032.4673.5429.8655.9766 1.1447.4336.2791.9417.427 1.461.425.353.0067.7038-.0578 1.0302-.1898.3265-.1318.6216-.3281.867-.5765.2454-.2486.4357-.5439.559-.8675.1234-.3237.1772-.6688.1581-1.0138z"/><path d="m83.0801 9.9002c0-.39838.1208-.78771.347-1.11888.2263-.33117.5479-.58936.9241-.74176.3763-.15241.7903-.19234 1.1897-.11461.3994.07772.7663.2695 1.0543.55111.288.28173.484.64051.5637 1.03119.0798.39069.0382.79565-.1178 1.16365-.1554.368-.4193.6825-.7579.9038-.3387.2213-.7368.3395-1.1441.3395-.5441-.0059-1.0644-.22-1.4492-.5964-.3849-.3765-.6037-.8853-.6098-1.4176zm.3355 2.9983h3.4703v11.2012h-3.4703z"/><path d="m101.74 18.4994c.038.7449-.074 1.49-.331 2.1924-.256.7024-.653 1.3482-1.166 1.9003-.5125.5521-1.1318.9995-1.8216 1.3166-.6909.317-1.4384.4973-2.1998.5307-.647.0421-1.2951-.0593-1.8959-.2963s-1.1392-.6037-1.5747-1.0727v5.5327h-3.4707v-15.7043h3.4707v1.0522c.4367-.4676.9751-.8327 1.5759-1.0678.6007-.2351 1.2489-.3342 1.8947-.2899.7579.0334 1.5032.2127 2.1906.5276.6886.3149 1.3067.7592 1.8188 1.3077.513.5484.909 1.1902 1.168 1.8886.259.6986.374 1.44.341 2.1822zm-3.4711 0c-.0138-.5255-.186-1.0354-.4945-1.4657-.3084-.4304-.7405-.762-1.2408-.9533-.5003-.1914-1.0479-.2341-1.5724-.1225-.5257.1114-1.0052.3721-1.3795.7492-.3755.3771-.6274.8539-.7256 1.3706-.0982.5169-.0393 1.0506.171 1.5342.2103.4838.5615.8961 1.0109 1.1853.4483.2891.9751.4423 1.5124.4403.3685.0152.7348-.0457 1.0779-.179.342-.1333.6516-.3359.9081-.5945.2565-.2585.4552-.5672.5812-.9057.1259-.3386.1779-.6994.1513-1.0589z"/><path d="m112.301 20.7391c0 2.5797-2.314 3.6772-4.766 3.6772-1.001.088-2.005-.1194-2.883-.5954-.879-.476-1.591-1.1988-2.045-2.0748l2.985-1.6519c.118.4037.374.7554.725.9964.353.241.778.3566 1.206.3274.822 0 1.238-.2489 1.238-.7015 0-1.2333-5.634-.5771-5.634-4.4579 0-2.4439 2.105-3.6658 4.489-3.6658.906-.0397 1.806.1613 2.604.5817.798.4203 1.465 1.0443 1.931 1.8056l-2.985 1.5388c-.132-.2919-.347-.5403-.62-.7149-.274-.1747-.593-.2684-.919-.2695-.602 0-.96.2263-.96.6223 0 1.2898 5.634.4413 5.634 4.5823z"/><path d="m124.875 12.8985v11.2013h-3.47v-1.0522c-.395.4657-.895.8343-1.461 1.0761-.568.2416-1.184.3497-1.801.3155-2.313 0-4.291-1.6179-4.291-4.6388v-6.9019h3.469v6.3927c-.026.2673.006.5371.095.7909.09.2539.236.4856.425.6792.191.1937.422.3446.677.4424.257.0977.53.1402.804.1241 1.25 0 2.129-.7241 2.129-2.2629v-6.1664z"/><path d="m144.54 17.2206v6.8791h-3.47v-6.5849c0-1.1314-.544-1.8329-1.643-1.8329s-1.793.7807-1.793 2.1044v6.3134h-3.471v-6.5849c0-1.1314-.543-1.8329-1.641-1.8329-1.1 0-1.794.7807-1.794 2.1044v6.3134h-3.47v-11.2012h3.47v1.0297c.36-.455.829-.8152 1.366-1.0483s1.125-.3316 1.711-.2868c.587-.03 1.172.0898 1.697.3476.525.2579.973.645 1.299 1.1232.381-.4996.886-.8965 1.466-1.1538.581-.2572 1.219-.3663 1.855-.317 2.707 0 4.418 1.8329 4.418 4.6275z"/><path d="m15.5008 4.80859v-4.80859h-15.5008v33.0379h15.5008v-4.8086c-3.1753 0-6.22065-1.2338-8.46596-3.4299-2.24532-2.1961-3.50673-5.1747-3.50673-8.2805s1.26141-6.0843 3.50673-8.28037c2.24531-2.19611 5.29066-3.42994 8.46596-3.42994z"/><path d="m15.501 4.80838v23.42062c3.1752 0 6.2206-1.2337 8.466-3.4298 2.2453-2.1961 3.5067-5.1747 3.5067-8.2805s-1.2614-6.0843-3.5067-8.28038c-2.2454-2.19611-5.2908-3.42994-8.466-3.42994z"/><path d="m147.456 12.8308c1.405 0 2.544-1.1144 2.544-2.4891 0-1.37481-1.139-2.48916-2.544-2.48916-1.406 0-2.545 1.11435-2.545 2.48916 0 1.3747 1.139 2.4891 2.545 2.4891z"/></g></svg>