<svg fill="none" height="80" viewBox="0 0 80 80" width="80" xmlns="http://www.w3.org/2000/svg"><rect fill="#024751" fill-opacity=".9" height="80" rx="25" width="80"/><path d="m19.266 35v-10.674h-4.086v-2.286h10.62v2.286h-4.086v10.674zm6.7288 0 3.96-12.96h3.654l3.96 12.96h-2.52l-3.528-11.43h.468l-3.474 11.43zm2.376-2.7v-2.286h6.84v2.286zm10.8111 2.7v-12.96h2.484l5.634 8.64v-8.64h2.484v12.96h-2.484l-5.634-8.64v8.64zm12.7533 0v-.306l6.156-10.368h-5.616v-2.286h9.9v.306l-6.12 10.35h5.94v2.304zm-32.6692 23v-10.674h-4.086v-2.286h10.62v2.286h-4.086v10.674zm7.9803 0v-12.96h8.46v2.286h-6.012v2.772h4.932v2.286h-4.932v3.33h6.012v2.286zm15.7222.27c-1.296 0-2.415-.282-3.357-.846-.936-.564-1.659-1.353-2.169-2.367-.504-1.014-.756-2.193-.756-3.537s.252-2.523.756-3.537c.51-1.014 1.233-1.803 2.169-2.367.942-.564 2.061-.846 3.357-.846 1.488 0 2.736.369 3.744 1.107 1.014.738 1.728 1.737 2.142 2.997l-2.466.684c-.24-.786-.645-1.395-1.215-1.827-.57-.438-1.305-.657-2.205-.657-.822 0-1.509.183-2.061.549-.546.366-.957.882-1.233 1.548s-.414 1.449-.414 2.349.138 1.683.414 2.349.687 1.182 1.233 1.548c.552.366 1.239.549 2.061.549.9 0 1.635-.219 2.205-.657s.975-1.047 1.215-1.827l2.466.684c-.414 1.26-1.128 2.259-2.142 2.997-1.008.738-2.256 1.107-3.744 1.107zm7.8677-.27v-12.96h2.448v5.328h5.796v-5.328h2.448v12.96h-2.448v-5.346h-5.796v5.346z" fill="#f7fbfe"/></svg>