<svg fill="none" height="75" viewBox="0 0 66 75" width="66" xmlns="http://www.w3.org/2000/svg"><path d="m51.5625 46.875c-3.3117 0-6.3555 1.1454-8.7583 3.0608l-15.0126-9.3829c.4446-2.011.4446-4.0949 0-6.1059l15.0126-9.3829c2.4028 1.9155 5.4466 3.0609 8.7583 3.0609 7.7664 0 14.0625-6.296 14.0625-14.0625 0-7.76646-6.2961-14.0625-14.0625-14.0625-7.7665 0-14.0625 6.29604-14.0625 14.0625 0 1.0485.1157 2.0698.3334 3.0529l-15.0126 9.3829c-2.4028-1.9154-5.4466-3.0608-8.7583-3.0608-7.76646 0-14.0625 6.296-14.0625 14.0625s6.29604 14.0625 14.0625 14.0625c3.3117 0 6.3555-1.1454 8.7583-3.0608l15.0126 9.3829c-.2219 1.0025-.3337 2.0262-.3334 3.0529 0 7.7665 6.296 14.0625 14.0625 14.0625 7.7664 0 14.0625-6.296 14.0625-14.0625s-6.2961-14.0625-14.0625-14.0625z" fill="#024751" fill-opacity=".75"/></svg>