<svg fill="none" height="75" viewBox="0 0 75 75" width="75" xmlns="http://www.w3.org/2000/svg" xmlns:xlink="http://www.w3.org/1999/xlink"><linearGradient id="a" gradientUnits="userSpaceOnUse" x1="37.5" x2="37" y1="0" y2="75"><stop offset="0" stop-color="#024751"/><stop offset="1" stop-color="#024751"/></linearGradient><path d="m37.5 0c-20.7157 0-37.5 16.7843-37.5 37.5s16.7843 37.5 37.5 37.5 37.5-16.7843 37.5-37.5-16.7843-37.5-37.5-37.5zm0 14.5161c7.3488 0 13.3065 5.9577 13.3065 13.3065s-5.9577 13.3064-13.3065 13.3064-13.3065-5.9576-13.3065-13.3064 5.9577-13.3065 13.3065-13.3065zm0 52.0162c-8.876 0-16.8296-4.0222-22.1522-10.3125 2.8427-5.3529 8.4072-9.0424 14.8941-9.0424.3629 0 .7258.0605 1.0736.1664 1.9658.635 4.0222 1.0433 6.1845 1.0433s4.2339-.4083 6.1845-1.0433c.3478-.1059.7107-.1664 1.0736-.1664 6.4869 0 12.0514 3.6895 14.8941 9.0424-5.3226 6.2903-13.2762 10.3125-22.1522 10.3125z" fill="url(#a)" fill-opacity=".8"/></svg>