<svg fill="none" height="40" viewBox="0 0 40 40" width="40" xmlns="http://www.w3.org/2000/svg"><path d="m27.1371 12.2581c-1.1694-7.20165-3.9274-12.2581-7.1371-12.2581s-5.9677 5.05645-7.1371 12.2581zm-14.879 7.7419c0 1.7903.0967 3.5081.2661 5.1613h14.9435c.1694-1.6532.2662-3.371.2662-5.1613s-.0968-3.5081-.2662-5.1613h-14.9435c-.1694 1.6532-.2661 3.371-.2661 5.1613zm26.1854-7.7419c-2.3064-5.47584-6.9758-9.70971-12.7419-11.41939 1.9678 2.72581 3.3226 6.83064 4.0323 11.41939zm-24.1532-11.41939c-5.75804 1.70968-10.43546 5.94355-12.73385 11.41939h8.70965c.7016-4.58875 2.0565-8.69358 4.0242-11.41939zm25.0161 13.99999h-9.25c.1694 1.6936.2662 3.4274.2662 5.1613s-.0968 3.4677-.2662 5.1613h9.242c.4435-1.6532.6935-3.371.6935-5.1613s-.25-3.5081-.6855-5.1613zm-29.62898 5.1613c0-1.7339.09677-3.4677.26613-5.1613h-9.250002c-.435483 1.6532-.693548 3.371-.693548 5.1613s.258065 3.5081.693548 5.1613h9.241932c-.16129-1.6936-.25806-3.4274-.25806-5.1613zm3.18548 7.7419c1.1694 7.2016 3.9274 12.2581 7.1371 12.2581s5.9677-5.0565 7.1371-12.2581zm12.8468 11.4194c5.758-1.7097 10.4355-5.9436 12.7419-11.4194h-8.7097c-.7096 4.5887-2.0645 8.6936-4.0322 11.4194zm-24.15325-11.4194c2.30645 5.4758 6.97581 9.7097 12.74195 11.4194-1.9678-2.7258-3.3226-6.8307-4.0323-11.4194z" fill="#024751"/></svg>