<svg fill="none" height="40" viewBox="0 0 40 40" width="40" xmlns="http://www.w3.org/2000/svg"><path d="m25.5165 14.4837c4.6678 4.6726 4.6037 12.1639.0282 16.7648-.0086.0094-.0188.0195-.0282.0289l-5.2499 5.25c-4.6305 4.6304-12.164 4.6298-16.79376 0-4.63045-4.6297-4.63045-12.164 0-16.7937l2.89891-2.8989c.76874-.7688 2.09265-.2578 2.13233.8286.05063 1.3845.29891 2.7755.75703 4.1188.15516.4548.0443.958-.29554 1.2978l-1.02242 1.0224c-2.18953 2.1895-2.2582 5.7547-.09024 7.9656 2.18939 2.2328 5.78799 2.246 7.99409.0399l5.25-5.2492c2.2024-2.2025 2.1932-5.7623 0-7.9555-.2891-.2886-.5804-.5128-.8079-.6694-.1609-.1106-.2938-.2572-.388-.4282-.0943-.1709-.1472-.3616-.1547-.5567-.0309-.8255.2616-1.6762.9139-2.3286l1.6449-1.6449c.4313-.4313 1.1079-.4843 1.6081-.1352.5728.3999 1.1093.8495 1.6032 1.3435zm11.0106-11.01109c-4.6298-4.62983-12.1633-4.63046-16.7937 0l-5.25 5.24999c-.0094.00938-.0196.01953-.0282.02891-4.57542 4.60089-4.63956 12.09219.0282 16.76479.4939.494 1.0304.9435 1.6032 1.3435.5001.349 1.1768.296 1.6081-.1353l1.6448-1.6449c.6524-.6523.9449-1.503.9139-2.3286-.0074-.1951-.0604-.3857-.1546-.5567-.0943-.171-.2272-.3176-.3881-.4281-.2275-.1567-.5187-.3809-.8079-.6695-2.1932-2.1932-2.2024-5.753 0-7.9554l5.25-5.24925c2.2062-2.20616 5.8047-2.19288 7.9941.03985 2.168 2.2109 2.0994 5.7761-.0902 7.9656l-1.0224 1.0224c-.3399.3399-.4507.843-.2956 1.2978.4582 1.3433.7064 2.7343.7571 4.1189.0397 1.0864 1.3635 1.5973 2.1323.8286l2.8989-2.899c4.6305-4.6296 4.6305-12.16391.0001-16.79359z" fill="#024751"/></svg>