<svg fill="none" height="75" viewBox="0 0 75 75" width="75" xmlns="http://www.w3.org/2000/svg"><path d="m73.9922 2.79694c-.1742-.81025-.9753-1.61133-1.7881-1.78528-4.7164-1.01166-8.4091-1.01166-12.0858-1.01166-15.1219 0-24.1902 8.08639-30.9602 18.75h-15.2659c-2.3946.0023-5.20844 1.7395-6.28218 3.8795l-7.241521 14.4745c-.223788.4937-.3489667 1.0262-.368499 1.5679.00033672.9324.370957 1.8266 1.03038 2.4858.65941.6593 1.55365 1.0297 2.4861 1.0298h15.20662l-3.2922 3.2913c-1.6648 1.6643-1.9037 4.7253 0 6.6284l7.4567 7.457c1.6342 1.6388 4.7104 1.9272 6.6324 0l3.2922-3.2913v15.2115c.0003.9324.3709 1.8266 1.0303 2.4858.6594.6593 1.5537 1.0297 2.4861 1.0298.5418-.0201 1.0744-.1452 1.5684-.3685l14.4622-7.235c2.1429-1.0688 3.883-3.8818 3.883-6.2782v-15.2984c10.6344-6.7841 18.7551-15.8799 18.7551-30.922.0137-3.6918.0137-7.38371-1.0051-12.10096zm-17.7363 21.81246c-1.1588-.0003-2.2915-.3442-3.2549-.9882s-1.7142-1.5592-2.1574-2.6299c-.4433-1.0707-.5591-2.2488-.3329-3.3853.2263-1.1365.7844-2.1804 1.6039-2.9997s1.8636-1.3772 3.0001-1.6032c1.1366-.226 2.3147-.1098 3.3852.3337 1.0706.4435 1.9856 1.1945 2.6294 2.1581.6438.9635.9874 2.0963.9874 3.2551-.0009 1.554-.6187 3.044-1.7177 4.1427-1.0989 1.0987-2.5891 1.7161-4.1431 1.7167z" fill="#024751" fill-opacity=".75"/></svg>